<?xml version="1.0" encoding="UTF-8"?>
<svg xmlns="http://www.w3.org/2000/svg" xmlns:xlink="http://www.w3.org/1999/xlink" width="504pt" height="504pt" viewBox="0 0 504 504" version="1.1">
<g id="surface1">
<rect x="0" y="0" width="504" height="504" style="fill:rgb(100%,100%,100%);fill-opacity:1;stroke:none;"/>
<path style=" stroke:none;fill-rule:nonzero;fill:rgb(100%,0%,0%);fill-opacity:1;" d="M 74.398438 426.882812 L 110.625 426.882812 L 110.625 59.042969 L 74.398438 59.042969 Z "/>
<path style=" stroke:none;fill-rule:nonzero;fill:rgb(100%,0%,0%);fill-opacity:1;" d="M 117.871094 426.882812 L 154.097656 426.882812 L 154.097656 260.945312 L 117.871094 260.945312 Z "/>
<path style=" stroke:none;fill-rule:nonzero;fill:rgb(100%,0%,0%);fill-opacity:1;" d="M 161.34375 426.882812 L 197.570312 426.882812 L 197.570312 297.730469 L 161.34375 297.730469 Z "/>
<path style=" stroke:none;fill-rule:nonzero;fill:rgb(100%,0%,0%);fill-opacity:1;" d="M 204.816406 426.882812 L 241.042969 426.882812 L 241.042969 191.464844 L 204.816406 191.464844 Z "/>
<path style=" stroke:none;fill-rule:nonzero;fill:rgb(100%,0%,0%);fill-opacity:1;" d="M 248.285156 426.882812 L 284.511719 426.882812 L 284.511719 95.824219 L 248.285156 95.824219 Z "/>
<path style=" stroke:none;fill-rule:nonzero;fill:rgb(100%,0%,0%);fill-opacity:1;" d="M 291.757812 426.882812 L 327.984375 426.882812 L 327.984375 59.859375 L 291.757812 59.859375 Z "/>
<path style=" stroke:none;fill-rule:nonzero;fill:rgb(100%,0%,0%);fill-opacity:1;" d="M 335.230469 426.882812 L 371.457031 426.882812 L 371.457031 359.035156 L 335.230469 359.035156 Z "/>
<path style=" stroke:none;fill-rule:nonzero;fill:rgb(100%,0%,0%);fill-opacity:1;" d="M 378.703125 426.882812 L 414.929688 426.882812 L 414.929688 411.351562 L 378.703125 411.351562 Z "/>
<path style=" stroke:none;fill-rule:nonzero;fill:rgb(100%,0%,0%);fill-opacity:1;" d="M 422.171875 426.882812 L 458.398438 426.882812 L 458.398438 152.226562 L 422.171875 152.226562 Z "/>
</g>
</svg>
