<?xml version="1.0" encoding="UTF-8" standalone="no"?>
<!-- Created with Inkscape (http://www.inkscape.org/) -->

<svg
   xmlns:dc="http://purl.org/dc/elements/1.1/"
   xmlns:cc="http://creativecommons.org/ns#"
   xmlns:rdf="http://www.w3.org/1999/02/22-rdf-syntax-ns#"
   xmlns:svg="http://www.w3.org/2000/svg"
   xmlns="http://www.w3.org/2000/svg"
   xmlns:sodipodi="http://sodipodi.sourceforge.net/DTD/sodipodi-0.dtd"
   xmlns:inkscape="http://www.inkscape.org/namespaces/inkscape"
   width="185.38246mm"
   height="216.49234mm"
   viewBox="0 0 656.86699 767.09884"
   id="svg2"
   version="1.1"
   inkscape:version="0.91 r13725"
   sodipodi:docname="UPSID_Articulation_NLangs.svg">
  <defs
     id="defs4">
    <marker
       inkscape:stockid="DotM"
       orient="auto"
       refY="0"
       refX="0"
       id="marker4518"
       style="overflow:visible"
       inkscape:isstock="true">
      <path
         id="path4520"
         d="m -2.5,-1 c 0,2.76 -2.24,5 -5,5 -2.76,0 -5,-2.24 -5,-5 0,-2.76 2.24,-5 5,-5 2.76,0 5,2.24 5,5 z"
         style="fill:#ff0000;fill-opacity:1;fill-rule:evenodd;stroke:#ff0000;stroke-width:1pt;stroke-opacity:1"
         transform="matrix(0.4,0,0,0.4,2.96,0.4)"
         inkscape:connector-curvature="0" />
    </marker>
    <marker
       inkscape:isstock="true"
       style="overflow:visible"
       id="marker4510"
       refX="0"
       refY="0"
       orient="auto"
       inkscape:stockid="DotM">
      <path
         transform="matrix(0.4,0,0,0.4,2.96,0.4)"
         style="fill:#ff0000;fill-opacity:1;fill-rule:evenodd;stroke:#ff0000;stroke-width:1pt;stroke-opacity:1"
         d="m -2.5,-1 c 0,2.76 -2.24,5 -5,5 -2.76,0 -5,-2.24 -5,-5 0,-2.76 2.24,-5 5,-5 2.76,0 5,2.24 5,5 z"
         id="path4512"
         inkscape:connector-curvature="0" />
    </marker>
    <marker
       inkscape:stockid="DotM"
       orient="auto"
       refY="0"
       refX="0"
       id="marker4504"
       style="overflow:visible"
       inkscape:isstock="true"
       inkscape:collect="always">
      <path
         id="path4506"
         d="m -2.5,-1 c 0,2.76 -2.24,5 -5,5 -2.76,0 -5,-2.24 -5,-5 0,-2.76 2.24,-5 5,-5 2.76,0 5,2.24 5,5 z"
         style="fill:#ff0000;fill-opacity:1;fill-rule:evenodd;stroke:#ff0000;stroke-width:1pt;stroke-opacity:1"
         transform="matrix(0.4,0,0,0.4,2.96,0.4)"
         inkscape:connector-curvature="0" />
    </marker>
    <marker
       inkscape:isstock="true"
       style="overflow:visible"
       id="marker4498"
       refX="0"
       refY="0"
       orient="auto"
       inkscape:stockid="DotM"
       inkscape:collect="always">
      <path
         transform="matrix(0.4,0,0,0.4,2.96,0.4)"
         style="fill:#ff0000;fill-opacity:1;fill-rule:evenodd;stroke:#ff0000;stroke-width:1pt;stroke-opacity:1"
         d="m -2.5,-1 c 0,2.76 -2.24,5 -5,5 -2.76,0 -5,-2.24 -5,-5 0,-2.76 2.24,-5 5,-5 2.76,0 5,2.24 5,5 z"
         id="path4500"
         inkscape:connector-curvature="0" />
    </marker>
    <marker
       inkscape:stockid="DotM"
       orient="auto"
       refY="0"
       refX="0"
       id="marker4492"
       style="overflow:visible"
       inkscape:isstock="true"
       inkscape:collect="always">
      <path
         id="path4494"
         d="m -2.5,-1 c 0,2.76 -2.24,5 -5,5 -2.76,0 -5,-2.24 -5,-5 0,-2.76 2.24,-5 5,-5 2.76,0 5,2.24 5,5 z"
         style="fill:#ff0000;fill-opacity:1;fill-rule:evenodd;stroke:#ff0000;stroke-width:1pt;stroke-opacity:1"
         transform="matrix(0.4,0,0,0.4,2.96,0.4)"
         inkscape:connector-curvature="0" />
    </marker>
    <marker
       inkscape:isstock="true"
       style="overflow:visible"
       id="marker4486"
       refX="0"
       refY="0"
       orient="auto"
       inkscape:stockid="DotM"
       inkscape:collect="always">
      <path
         transform="matrix(0.4,0,0,0.4,2.96,0.4)"
         style="fill:#ff0000;fill-opacity:1;fill-rule:evenodd;stroke:#ff0000;stroke-width:1pt;stroke-opacity:1"
         d="m -2.5,-1 c 0,2.76 -2.24,5 -5,5 -2.76,0 -5,-2.24 -5,-5 0,-2.76 2.24,-5 5,-5 2.76,0 5,2.24 5,5 z"
         id="path4488"
         inkscape:connector-curvature="0" />
    </marker>
    <marker
       inkscape:stockid="DotM"
       orient="auto"
       refY="0"
       refX="0"
       id="marker4480"
       style="overflow:visible"
       inkscape:isstock="true"
       inkscape:collect="always">
      <path
         id="path4482"
         d="m -2.5,-1 c 0,2.76 -2.24,5 -5,5 -2.76,0 -5,-2.24 -5,-5 0,-2.76 2.24,-5 5,-5 2.76,0 5,2.24 5,5 z"
         style="fill:#ff0000;fill-opacity:1;fill-rule:evenodd;stroke:#ff0000;stroke-width:1pt;stroke-opacity:1"
         transform="matrix(0.4,0,0,0.4,2.96,0.4)"
         inkscape:connector-curvature="0" />
    </marker>
    <marker
       inkscape:isstock="true"
       style="overflow:visible"
       id="marker4474"
       refX="0"
       refY="0"
       orient="auto"
       inkscape:stockid="DotM"
       inkscape:collect="always">
      <path
         transform="matrix(0.4,0,0,0.4,2.96,0.4)"
         style="fill:#ff0000;fill-opacity:1;fill-rule:evenodd;stroke:#ff0000;stroke-width:1pt;stroke-opacity:1"
         d="m -2.5,-1 c 0,2.76 -2.24,5 -5,5 -2.76,0 -5,-2.24 -5,-5 0,-2.76 2.24,-5 5,-5 2.76,0 5,2.24 5,5 z"
         id="path4476"
         inkscape:connector-curvature="0" />
    </marker>
    <marker
       inkscape:stockid="DotM"
       orient="auto"
       refY="0"
       refX="0"
       id="marker4468"
       style="overflow:visible"
       inkscape:isstock="true"
       inkscape:collect="always">
      <path
         id="path4470"
         d="m -2.5,-1 c 0,2.76 -2.24,5 -5,5 -2.76,0 -5,-2.24 -5,-5 0,-2.76 2.24,-5 5,-5 2.76,0 5,2.24 5,5 z"
         style="fill:#ff0000;fill-opacity:1;fill-rule:evenodd;stroke:#ff0000;stroke-width:1pt;stroke-opacity:1"
         transform="matrix(0.4,0,0,0.4,2.96,0.4)"
         inkscape:connector-curvature="0" />
    </marker>
    <marker
       inkscape:isstock="true"
       style="overflow:visible"
       id="marker4462"
       refX="0"
       refY="0"
       orient="auto"
       inkscape:stockid="DotM"
       inkscape:collect="always">
      <path
         transform="matrix(0.4,0,0,0.4,2.96,0.4)"
         style="fill:#ff0000;fill-opacity:1;fill-rule:evenodd;stroke:#ff0000;stroke-width:1pt;stroke-opacity:1"
         d="m -2.5,-1 c 0,2.76 -2.24,5 -5,5 -2.76,0 -5,-2.24 -5,-5 0,-2.76 2.24,-5 5,-5 2.76,0 5,2.24 5,5 z"
         id="path4464"
         inkscape:connector-curvature="0" />
    </marker>
    <marker
       inkscape:isstock="true"
       style="overflow:visible"
       id="marker4456"
       refX="0"
       refY="0"
       orient="auto"
       inkscape:stockid="DotM">
      <path
         transform="matrix(0.4,0,0,0.4,2.96,0.4)"
         style="fill:#ff0000;fill-opacity:1;fill-rule:evenodd;stroke:#ff0000;stroke-width:1pt;stroke-opacity:1"
         d="m -2.5,-1 c 0,2.76 -2.24,5 -5,5 -2.76,0 -5,-2.24 -5,-5 0,-2.76 2.24,-5 5,-5 2.76,0 5,2.24 5,5 z"
         id="path4458"
         inkscape:connector-curvature="0" />
    </marker>
    <marker
       inkscape:stockid="DotM"
       orient="auto"
       refY="0"
       refX="0"
       id="marker4450"
       style="overflow:visible"
       inkscape:isstock="true"
       inkscape:collect="always">
      <path
         id="path4452"
         d="m -2.5,-1 c 0,2.76 -2.24,5 -5,5 -2.76,0 -5,-2.24 -5,-5 0,-2.76 2.24,-5 5,-5 2.76,0 5,2.24 5,5 z"
         style="fill:#ff0000;fill-opacity:1;fill-rule:evenodd;stroke:#ff0000;stroke-width:1pt;stroke-opacity:1"
         transform="matrix(0.4,0,0,0.4,2.96,0.4)"
         inkscape:connector-curvature="0" />
    </marker>
    <marker
       inkscape:isstock="true"
       style="overflow:visible"
       id="marker4444"
       refX="0"
       refY="0"
       orient="auto"
       inkscape:stockid="DotM"
       inkscape:collect="always">
      <path
         transform="matrix(0.4,0,0,0.4,2.96,0.4)"
         style="fill:#ff0000;fill-opacity:1;fill-rule:evenodd;stroke:#ff0000;stroke-width:1pt;stroke-opacity:1"
         d="m -2.5,-1 c 0,2.76 -2.24,5 -5,5 -2.76,0 -5,-2.24 -5,-5 0,-2.76 2.24,-5 5,-5 2.76,0 5,2.24 5,5 z"
         id="path4446"
         inkscape:connector-curvature="0" />
    </marker>
    <marker
       inkscape:stockid="DotM"
       orient="auto"
       refY="0"
       refX="0"
       id="marker4398"
       style="overflow:visible"
       inkscape:isstock="true"
       inkscape:collect="always">
      <path
         id="path4400"
         d="m -2.5,-1 c 0,2.76 -2.24,5 -5,5 -2.76,0 -5,-2.24 -5,-5 0,-2.76 2.24,-5 5,-5 2.76,0 5,2.24 5,5 z"
         style="fill:#ff0000;fill-opacity:1;fill-rule:evenodd;stroke:#ff0000;stroke-width:1pt;stroke-opacity:1"
         transform="matrix(0.4,0,0,0.4,2.96,0.4)"
         inkscape:connector-curvature="0" />
    </marker>
    <marker
       inkscape:stockid="DotM"
       orient="auto"
       refY="0"
       refX="0"
       id="marker4252"
       style="overflow:visible"
       inkscape:isstock="true">
      <path
         id="path4254"
         d="m -2.5,-1 c 0,2.76 -2.24,5 -5,5 -2.76,0 -5,-2.24 -5,-5 0,-2.76 2.24,-5 5,-5 2.76,0 5,2.24 5,5 z"
         style="fill:#ff0000;fill-opacity:1;fill-rule:evenodd;stroke:#ff0000;stroke-width:1pt;stroke-opacity:1"
         transform="matrix(0.4,0,0,0.4,2.96,0.4)"
         inkscape:connector-curvature="0" />
    </marker>
    <marker
       inkscape:isstock="true"
       style="overflow:visible"
       id="marker5314"
       refX="0"
       refY="0"
       orient="auto"
       inkscape:stockid="DotM"
       inkscape:collect="always">
      <path
         transform="matrix(0.4,0,0,0.4,2.96,0.4)"
         style="fill:#ff0000;fill-opacity:1;fill-rule:evenodd;stroke:#ff0000;stroke-width:1pt;stroke-opacity:1"
         d="m -2.5,-1 c 0,2.76 -2.24,5 -5,5 -2.76,0 -5,-2.24 -5,-5 0,-2.76 2.24,-5 5,-5 2.76,0 5,2.24 5,5 z"
         id="path5316"
         inkscape:connector-curvature="0" />
    </marker>
    <marker
       inkscape:isstock="true"
       style="overflow:visible"
       id="marker5238"
       refX="0"
       refY="0"
       orient="auto"
       inkscape:stockid="DotM"
       inkscape:collect="always">
      <path
         transform="matrix(0.4,0,0,0.4,2.96,0.4)"
         style="fill:#ff0000;fill-opacity:1;fill-rule:evenodd;stroke:#ff0000;stroke-width:1pt;stroke-opacity:1"
         d="m -2.5,-1 c 0,2.76 -2.24,5 -5,5 -2.76,0 -5,-2.24 -5,-5 0,-2.76 2.24,-5 5,-5 2.76,0 5,2.24 5,5 z"
         id="path5240"
         inkscape:connector-curvature="0" />
    </marker>
    <marker
       inkscape:isstock="true"
       style="overflow:visible"
       id="marker5168"
       refX="0"
       refY="0"
       orient="auto"
       inkscape:stockid="DotM">
      <path
         transform="matrix(0.4,0,0,0.4,2.96,0.4)"
         style="fill:#ff0000;fill-opacity:1;fill-rule:evenodd;stroke:#ff0000;stroke-width:1pt;stroke-opacity:1"
         d="m -2.5,-1 c 0,2.76 -2.24,5 -5,5 -2.76,0 -5,-2.24 -5,-5 0,-2.76 2.24,-5 5,-5 2.76,0 5,2.24 5,5 z"
         id="path5170"
         inkscape:connector-curvature="0" />
    </marker>
    <marker
       inkscape:isstock="true"
       style="overflow:visible"
       id="marker5104"
       refX="0"
       refY="0"
       orient="auto"
       inkscape:stockid="DotM">
      <path
         transform="matrix(0.4,0,0,0.4,2.96,0.4)"
         style="fill:#ff0000;fill-opacity:1;fill-rule:evenodd;stroke:#ff0000;stroke-width:1pt;stroke-opacity:1"
         d="m -2.5,-1 c 0,2.76 -2.24,5 -5,5 -2.76,0 -5,-2.24 -5,-5 0,-2.76 2.24,-5 5,-5 2.76,0 5,2.24 5,5 z"
         id="path5106"
         inkscape:connector-curvature="0" />
    </marker>
    <marker
       inkscape:isstock="true"
       style="overflow:visible"
       id="marker5046"
       refX="0"
       refY="0"
       orient="auto"
       inkscape:stockid="DotM">
      <path
         transform="matrix(0.4,0,0,0.4,2.96,0.4)"
         style="fill:#ff0000;fill-opacity:1;fill-rule:evenodd;stroke:#ff0000;stroke-width:1pt;stroke-opacity:1"
         d="m -2.5,-1 c 0,2.76 -2.24,5 -5,5 -2.76,0 -5,-2.24 -5,-5 0,-2.76 2.24,-5 5,-5 2.76,0 5,2.24 5,5 z"
         id="path5048"
         inkscape:connector-curvature="0" />
    </marker>
    <marker
       inkscape:isstock="true"
       style="overflow:visible"
       id="marker4994"
       refX="0"
       refY="0"
       orient="auto"
       inkscape:stockid="DotM">
      <path
         transform="matrix(0.4,0,0,0.4,2.96,0.4)"
         style="fill:#ff0000;fill-opacity:1;fill-rule:evenodd;stroke:#ff0000;stroke-width:1pt;stroke-opacity:1"
         d="m -2.5,-1 c 0,2.76 -2.24,5 -5,5 -2.76,0 -5,-2.24 -5,-5 0,-2.76 2.24,-5 5,-5 2.76,0 5,2.24 5,5 z"
         id="path4996"
         inkscape:connector-curvature="0" />
    </marker>
    <marker
       inkscape:isstock="true"
       style="overflow:visible"
       id="marker4948"
       refX="0"
       refY="0"
       orient="auto"
       inkscape:stockid="DotM">
      <path
         transform="matrix(0.4,0,0,0.4,2.96,0.4)"
         style="fill:#ff0000;fill-opacity:1;fill-rule:evenodd;stroke:#ff0000;stroke-width:1pt;stroke-opacity:1"
         d="m -2.5,-1 c 0,2.76 -2.24,5 -5,5 -2.76,0 -5,-2.24 -5,-5 0,-2.76 2.24,-5 5,-5 2.76,0 5,2.24 5,5 z"
         id="path4950"
         inkscape:connector-curvature="0" />
    </marker>
    <marker
       inkscape:isstock="true"
       style="overflow:visible"
       id="marker4908"
       refX="0"
       refY="0"
       orient="auto"
       inkscape:stockid="DotM">
      <path
         transform="matrix(0.4,0,0,0.4,2.96,0.4)"
         style="fill:#ff0000;fill-opacity:1;fill-rule:evenodd;stroke:#ff0000;stroke-width:1pt;stroke-opacity:1"
         d="m -2.5,-1 c 0,2.76 -2.24,5 -5,5 -2.76,0 -5,-2.24 -5,-5 0,-2.76 2.24,-5 5,-5 2.76,0 5,2.24 5,5 z"
         id="path4910"
         inkscape:connector-curvature="0" />
    </marker>
    <marker
       inkscape:isstock="true"
       style="overflow:visible"
       id="marker4874"
       refX="0"
       refY="0"
       orient="auto"
       inkscape:stockid="DotM">
      <path
         transform="matrix(0.4,0,0,0.4,2.96,0.4)"
         style="fill:#ff0000;fill-opacity:1;fill-rule:evenodd;stroke:#ff0000;stroke-width:1pt;stroke-opacity:1"
         d="m -2.5,-1 c 0,2.76 -2.24,5 -5,5 -2.76,0 -5,-2.24 -5,-5 0,-2.76 2.24,-5 5,-5 2.76,0 5,2.24 5,5 z"
         id="path4876"
         inkscape:connector-curvature="0" />
    </marker>
    <marker
       inkscape:isstock="true"
       style="overflow:visible"
       id="marker4846"
       refX="0"
       refY="0"
       orient="auto"
       inkscape:stockid="DotM">
      <path
         transform="matrix(0.4,0,0,0.4,2.96,0.4)"
         style="fill:#ff0000;fill-opacity:1;fill-rule:evenodd;stroke:#ff0000;stroke-width:1pt;stroke-opacity:1"
         d="m -2.5,-1 c 0,2.76 -2.24,5 -5,5 -2.76,0 -5,-2.24 -5,-5 0,-2.76 2.24,-5 5,-5 2.76,0 5,2.24 5,5 z"
         id="path4848"
         inkscape:connector-curvature="0" />
    </marker>
    <marker
       inkscape:isstock="true"
       style="overflow:visible"
       id="marker4824"
       refX="0"
       refY="0"
       orient="auto"
       inkscape:stockid="DotM">
      <path
         transform="matrix(0.4,0,0,0.4,2.96,0.4)"
         style="fill:#ff0000;fill-opacity:1;fill-rule:evenodd;stroke:#ff0000;stroke-width:1pt;stroke-opacity:1"
         d="m -2.5,-1 c 0,2.76 -2.24,5 -5,5 -2.76,0 -5,-2.24 -5,-5 0,-2.76 2.24,-5 5,-5 2.76,0 5,2.24 5,5 z"
         id="path4826"
         inkscape:connector-curvature="0" />
    </marker>
    <marker
       inkscape:stockid="DotM"
       orient="auto"
       refY="0"
       refX="0"
       id="DotM"
       style="overflow:visible"
       inkscape:isstock="true"
       inkscape:collect="always">
      <path
         id="path4612"
         d="m -2.5,-1 c 0,2.76 -2.24,5 -5,5 -2.76,0 -5,-2.24 -5,-5 0,-2.76 2.24,-5 5,-5 2.76,0 5,2.24 5,5 z"
         style="fill:#ff0000;fill-opacity:1;fill-rule:evenodd;stroke:#ff0000;stroke-width:1pt;stroke-opacity:1"
         transform="matrix(0.4,0,0,0.4,2.96,0.4)"
         inkscape:connector-curvature="0" />
    </marker>
  </defs>
  <sodipodi:namedview
     id="base"
     pagecolor="#ffffff"
     bordercolor="#666666"
     borderopacity="1.0"
     inkscape:pageopacity="0.0"
     inkscape:pageshadow="2"
     inkscape:zoom="0.98994949"
     inkscape:cx="268.89427"
     inkscape:cy="344.04298"
     inkscape:document-units="px"
     inkscape:current-layer="layer1"
     showgrid="false"
     inkscape:window-width="1920"
     inkscape:window-height="1035"
     inkscape:window-x="0"
     inkscape:window-y="1"
     inkscape:window-maximized="1"
     fit-margin-top="0"
     fit-margin-left="0"
     fit-margin-right="0"
     fit-margin-bottom="0" />
  <metadata
     id="metadata7">
    <rdf:RDF>
      <cc:Work
         rdf:about="">
        <dc:format>image/svg+xml</dc:format>
        <dc:type
           rdf:resource="http://purl.org/dc/dcmitype/StillImage" />
        <dc:title></dc:title>
      </cc:Work>
    </rdf:RDF>
  </metadata>
  <g
     inkscape:label="Layer 1"
     inkscape:groupmode="layer"
     id="layer1"
     transform="translate(-39.467896,335.40714)">
    <path
       style="fill:#000000;marker-start:"
       d="m 518.79326,409.7287 c -25.51518,-18.61892 -32.85706,-22.74904 -48.21964,-27.12551 -28.89637,-8.23197 -44.45685,-8.88773 -77.68878,-3.27408 -18.34706,3.09915 -34.71941,7.21218 -44.23163,11.11147 -8.30631,3.40496 -26.25554,10.83926 -39.88721,16.52064 -33.05925,13.77841 -63.31256,19.408 -75.97559,14.13763 -11.35528,-4.72611 -27.89748,-20.54543 -37.14824,-35.52495 -6.15036,-9.9591 -8.07757,-16.0051 -11.34581,-35.59386 -4.49765,-26.95757 -6.26909,-29.73807 -23.05763,-36.19234 -12.53219,-4.81793 -16.11121,-11.00476 -15.22301,-26.31494 0.78074,-13.45766 5.10525,-19.48473 15.16855,-21.14041 11.35503,-1.8682 14.83753,0.57171 28.61592,20.04905 7.49207,10.5909 13.37081,16.7998 15.56467,16.43886 3.19524,-0.5257 3.12171,-0.99297 -0.78519,-4.98924 -2.37078,-2.42505 -4.59681,-6.14935 -4.94673,-8.27621 -0.34993,-2.12685 -3.93938,-8.1963 -7.97655,-13.48764 -16.38985,-21.4815 -6.38846,-29.1618 12.41635,-9.53482 13.61598,14.21129 22.69284,19.21504 30.0868,16.58579 10.99517,-3.90982 20.91779,-20.88724 18.9165,-32.36578 -1.63393,-9.37114 -11.96401,-22.02046 -21.03137,-25.75303 -4.82397,-1.98579 -16.81304,-3.68377 -26.64236,-3.77329 -19.06269,-0.17363 -25.5946,-3.3941 -24.58792,-12.12277 1.49207,-12.93736 19.3243,-24.25248 49.82228,-31.61382 20.44816,-4.93558 119.48325,-17.00824 140.04923,-17.07238 46.39522,-0.1447 74.81388,14.40598 94.24248,48.25323 3.74687,6.52753 12.1388,28.19431 18.64878,48.14843 12.26239,37.58631 15.39513,43.53086 20.09058,38.12307 3.51926,-4.05316 0.83524,-19.22032 -5.83345,-32.96453 -5.66151,-11.66837 -5.70444,-16.17101 -0.14326,-15.02434 6.33236,1.30567 13.58711,19.1152 17.5172,43.00251 3.22085,19.57651 5.41381,26.17785 15.28561,46.01339 11.96175,24.03488 27.92535,47.64874 42.45046,62.79398 7.51754,7.8385 8.53199,8.27563 9.35385,4.03069 2.72637,-14.08142 23.12417,-26.99568 54.1869,-34.30679 l 18.95723,-4.46191 -1.99976,-11.45058 c -3.95593,-22.65014 4.33638,-34.54914 16.97633,-24.36034 15.66304,12.62564 17.7331,16.36624 21.91846,39.60642 l 3.99757,22.1975 -6.44237,-5.92862 c -3.54329,-3.26075 -10.77853,-7.7621 -16.07833,-10.00302 l -9.63602,-4.07438 -4.22874,5.55571 c -2.3258,3.05564 -7.826,8.22792 -12.22265,11.49391 -8.67972,6.44759 -45.46174,23.18246 -54.06416,24.59779 -6.21476,1.02249 -6.29858,1.77614 -0.8573,7.70678 l 4.06605,4.43173 -23.99017,3.94702 -23.99016,3.94701 -30.09786,-21.96302 z m 100.72689,-10.67353 c 21.07842,-8.95169 43.05957,-25.23426 42.08254,-31.17268 -0.17145,-1.04211 -5.60789,-1.01557 -12.08099,0.059 -30.18615,5.0111 -60.37519,20.3663 -63.62346,32.36122 -3.13335,11.57053 4.06867,11.30331 33.62191,-1.24752 z M 212.41423,280.3322 c -6.10914,-9.33392 -21.6788,-23.46777 -25.21154,-22.88655 -6.01181,0.9891 8.20876,22.73753 22.62348,34.59953 7.89047,6.49312 8.65426,6.69075 8.57812,2.21956 -0.046,-2.69951 -2.7415,-8.96915 -5.99006,-13.93254 z m 463.83171,44.98768 C 656.30972,303.13932 624.12672,250.11034 598.84302,197.78046 586.24891,177.6432 591.44256,183.77679 577.92617,152.44317 558.23651,106.77776 552.73326,88.659492 545.40172,45.363789 541.64563,23.18218 537.47735,-7.2325943 536.13907,-22.22464 c -2.02051,-22.63417 -3.38862,-29.256461 -8.06485,-39.03725 -7.34828,-15.369743 -20.57139,-26.321687 -36.83133,-30.505282 -33.18089,-8.537258 -43.61321,-12.298108 -55.8696,-20.141008 -22.23715,-14.22961 -25.87303,-22.73333 -22.62341,-52.91225 2.38056,-22.10806 -1.15408,-44.00695 -8.47634,-52.51496 -6.66959,-7.74968 -20.01626,-9.01155 -47.65393,-4.50551 -20.41531,3.32845 -32.83337,2.56726 -60.55532,-3.71211 -29.51702,-6.686 -42.12193,-4.66797 -83.35755,13.34552 -48.45617,21.1677 -54.56866,26.06359 -82.57184,66.13731 -20.60784,29.49069 -24.28489,36.34016 -32.262816,60.098404 -4.952274,14.747851 -9.008388,30.120255 -9.013585,34.160897 -0.01409,10.982598 -6.707527,18.406399 -17.37814,19.274424 -8.481896,0.689974 -8.853634,0.412088 -10.901166,-8.148864 -2.462555,-10.296209 -1.276179,-13.490353 28.384174,-76.420071 10.794675,-22.90279 24.969173,-50.37873 31.498903,-61.05764 13.39982,-21.91449 34.97804,-46.01984 40.22652,-44.93767 0.9503,0.19594 11.74087,-23.20076 43.51246,-31.08542 31.77158,-7.88466 84.52418,-0.25728 169.39853,-2.66297 l 314.31331,3.92489 0,274.879704 c 0,174.665526 -0.72836,313.659946 -0.89292,314.142006 -0.16456,0.48209 -5.01296,-4.36785 -10.77418,-10.77764 z M 507.438,100.78131 c -1.41633,-2.488785 -2.60686,-9.572632 -2.64569,-15.741869 -0.12143,-19.324893 -10.68025,-45.757681 -26.87627,-67.281663 -18.20995,-24.2005025 -35.757,-28.677242 -91.95585,-23.4605697 -18.09006,1.6792236 -41.66794,3.2476556 -52.39529,3.4854058 -10.72735,0.2377742 -31.83105,2.46037814 -46.8971,4.9391378 L 259.27496,7.2285952 248.2773,22.383953 c -11.6011,15.986945 -23.44043,23.903941 -39.7626,26.589367 -7.33846,1.20737 -8.74395,2.638536 -13.98736,14.242742 -3.20603,7.0953 -7.4469,14.270189 -9.42414,15.944197 -5.75579,4.873065 -8.87457,-0.889272 -6.67984,-12.34176 1.02736,-5.360954 1.77862,-12.829269 1.66948,-16.596228 -0.10917,-3.766976 0.0733,-8.719631 0.4054,-11.005893 0.33213,-2.286286 -0.38491,-3.994192 -1.59346,-3.795354 -1.20855,0.198839 -3.75241,7.957316 -5.65303,17.241079 -4.47113,21.839766 -9.24716,29.734825 -18.95383,31.331828 -9.22982,1.518546 -19.44478,-6.204892 -21.0414,-15.90924 -0.98837,-6.007391 4.20493,-24.832779 15.25228,-55.28864 5.92951,-16.3467398 -0.023,-27.642028 -13.40665,-25.440061 -10.40249,1.711483 -16.75983,-2.027923 -14.53765,-8.551077 2.71521,-7.970378 11.43512,-16.271345 18.27463,-17.396624 3.42274,-0.563131 13.1181,0.949931 21.54528,3.36238 103.51137,6.086977 206.19637,-12.36747 301.87444,3.305054 12.53386,-0.854508 25.90553,-0.540902 29.71483,0.696913 10.4245,3.38742 22.95553,14.703909 27.63546,24.9570073 6.15601,13.4869488 8.6237,44.4268527 5.13948,64.4387467 -1.60845,9.238203 -2.88655,21.366451 -2.84024,26.951655 0.13716,16.537375 -0.446,18.302625 -6.36834,19.277005 -3.60665,0.59339 -6.4216,-0.66285 -8.10204,-3.61574 z M 190.27196,67.519902 c 5.61839,-12.100661 10.28176,-32.741106 7.79964,-34.521885 -2.87793,-2.06472 -8.72081,7.355693 -13.72574,22.129901 -7.79702,23.016231 -3.33703,32.342474 5.9261,12.391984 z"
       id="path4331"
       inkscape:connector-curvature="0"
       sodipodi:nodetypes="csssssssssssssssssssssssssssssssssccsscsscsssscccccsssssscssscscsssssssssssssssssssscssscsssssscssssssssssssssssccssssssssss" />
    <path
       style="fill:none;fill-rule:evenodd;stroke:#ff0000;stroke-width:3.5999999;stroke-linecap:butt;stroke-linejoin:miter;stroke-miterlimit:4;stroke-dasharray:none;stroke-opacity:1;marker-end:url(#marker5238);marker-start:"
       d="m 141.36044,-33.551782 6.06092,107.07617"
       id="path4445"
       inkscape:connector-curvature="0"
       sodipodi:nodetypes="cc" />
    <path
       inkscape:connector-curvature="0"
       id="path4447"
       d="m 176.71107,-33.551782 -5.99529,93.944187"
       style="fill:none;fill-rule:evenodd;stroke:#ff0000;stroke-width:3.5999999;stroke-linecap:butt;stroke-linejoin:miter;stroke-miterlimit:4;stroke-dasharray:none;stroke-opacity:1;marker-end:url(#marker5168);marker-mid:"
       sodipodi:nodetypes="cc" />
    <path
       style="fill:none;fill-rule:evenodd;stroke:#ff0000;stroke-width:3.5999999;stroke-linecap:butt;stroke-linejoin:miter;stroke-miterlimit:4;stroke-dasharray:none;stroke-opacity:1;marker-end:url(#marker5104);marker-mid:"
       d="M 210.03123,-33.551782 183.84776,74.534541"
       id="path4449"
       inkscape:connector-curvature="0"
       sodipodi:nodetypes="cc" />
    <path
       sodipodi:nodetypes="cc"
       inkscape:connector-curvature="0"
       id="path4451"
       d="M 245.40759,-33.551782 203.04066,52.311185"
       style="fill:none;fill-rule:evenodd;stroke:#ff0000;stroke-width:3.5999999;stroke-linecap:butt;stroke-linejoin:miter;stroke-miterlimit:4;stroke-dasharray:none;stroke-opacity:1;marker-end:url(#marker5046);marker-mid:" />
    <path
       style="fill:none;fill-rule:evenodd;stroke:#ff0000;stroke-width:3.5999999;stroke-linecap:butt;stroke-linejoin:miter;stroke-miterlimit:4;stroke-dasharray:none;stroke-opacity:1;marker-end:url(#marker4994);marker-mid:"
       d="M 279.03523,-34.056858 235.08127,38.169049"
       id="path4453"
       inkscape:connector-curvature="0"
       sodipodi:nodetypes="cc" />
    <path
       sodipodi:nodetypes="cc"
       inkscape:connector-curvature="0"
       id="path4455"
       d="M 309.48594,-34.561934 260.33508,8.8746252"
       style="fill:none;fill-rule:evenodd;stroke:#ff0000;stroke-width:3.5999999;stroke-linecap:butt;stroke-linejoin:miter;stroke-miterlimit:4;stroke-dasharray:none;stroke-opacity:1;marker-end:url(#marker4948);marker-mid:" />
    <path
       style="fill:none;fill-rule:evenodd;stroke:#ff0000;stroke-width:3.5999999;stroke-linecap:butt;stroke-linejoin:miter;stroke-miterlimit:4;stroke-dasharray:none;stroke-opacity:1;marker-end:url(#marker4908);marker-mid:"
       d="m 347.2082,-35.067011 0.50508,30.8096532"
       id="path4457"
       inkscape:connector-curvature="0"
       sodipodi:nodetypes="cc" />
    <path
       sodipodi:nodetypes="cc"
       inkscape:connector-curvature="0"
       id="path4459"
       d="m 415.3935,-34.561934 32.82996,30.3045761"
       style="fill:none;fill-rule:evenodd;stroke:#ff0000;stroke-width:3.5999999;stroke-linecap:butt;stroke-linejoin:miter;stroke-miterlimit:4;stroke-dasharray:none;stroke-opacity:1;marker-end:url(#marker4874);marker-mid:" />
    <path
       style="fill:none;fill-rule:evenodd;stroke:#ff0000;stroke-width:3.5999999;stroke-linecap:butt;stroke-linejoin:miter;stroke-miterlimit:4;stroke-dasharray:none;stroke-opacity:1;marker-end:url(#marker4846);marker-mid:"
       d="m 382.05847,-46.178689 0,41.4162549"
       id="path4461"
       inkscape:connector-curvature="0"
       sodipodi:nodetypes="cc" />
    <path
       style="fill:none;fill-rule:evenodd;stroke:#ff0000;stroke-width:3.5999999;stroke-linecap:butt;stroke-linejoin:miter;stroke-miterlimit:4;stroke-dasharray:none;stroke-opacity:1;marker-end:url(#marker4824);marker-mid:"
       d="m 452.26407,-34.561934 54.54824,123.23861"
       id="path4538"
       inkscape:connector-curvature="0"
       sodipodi:nodetypes="cc" />
    <path
       sodipodi:nodetypes="cc"
       inkscape:connector-curvature="0"
       id="path4540"
       d="M 482.56865,-33.551781 558.33009,105.84927"
       style="fill:none;fill-rule:evenodd;stroke:#ff0000;stroke-width:3.5999999;stroke-linecap:butt;stroke-linejoin:miter;stroke-miterlimit:4;stroke-dasharray:none;stroke-opacity:1;marker-end:url(#DotM);marker-mid:" />
    <path
       style="fill:none;fill-rule:evenodd;stroke:#ff0000;stroke-width:3.5999999;stroke-linecap:butt;stroke-linejoin:miter;stroke-miterlimit:4;stroke-dasharray:none;stroke-opacity:1;marker-end:url(#marker5314);marker-mid:"
       d="M 517.92399,-33.551781 C 578.80754,89.08145 626.70701,217.12472 623.48493,366.46863"
       id="path4542"
       inkscape:connector-curvature="0"
       sodipodi:nodetypes="cc" />
    <g
       transform="matrix(1.0144545,0,0,-1.0144545,14.038032,45.04089)"
       inkscape:label="UPSID_LangDistribution"
       id="g4221">
      <g
         id="g4223" />
      <g
         id="g4225" />
      <g
         id="g4227">
        <path
           inkscape:connector-curvature="0"
           id="path4229"
           style="fill:#ff0000;fill-opacity:1;fill-rule:nonzero;stroke:none"
           d="m 110.38,76.3 28.27,0 0,286.16 -28.27,0 0,-286.16 z" />
        <path
           inkscape:connector-curvature="0"
           id="path4231"
           style="fill:#ff0000;fill-opacity:1;fill-rule:nonzero;stroke:none"
           d="m 144.31,76.3 28.27,0 0,129.09 -28.27,0 0,-129.09 z" />
        <path
           inkscape:connector-curvature="0"
           id="path4233"
           style="fill:#ff0000;fill-opacity:1;fill-rule:nonzero;stroke:none"
           d="m 178.23,76.3 28.27,0 0,100.47 -28.27,0 0,-100.47 z" />
        <path
           inkscape:connector-curvature="0"
           id="path4235"
           style="fill:#ff0000;fill-opacity:1;fill-rule:nonzero;stroke:none"
           d="m 212.16,76.3 28.27,0 0,131.63 -28.27,0 0,-131.63 z" />
        <path
           inkscape:connector-curvature="0"
           id="path4237"
           style="fill:#ff0000;fill-opacity:1;fill-rule:nonzero;stroke:none"
           d="m 246.09,76.3 28.27,0 0,183.14 -28.27,0 0,-183.14 z" />
        <path
           inkscape:connector-curvature="0"
           id="path4239"
           style="fill:#ff0000;fill-opacity:1;fill-rule:nonzero;stroke:none"
           d="m 280.01,76.3 28.27,0 0,183.78 -28.27,0 0,-183.78 z" />
        <path
           inkscape:connector-curvature="0"
           id="path4241"
           style="fill:#ff0000;fill-opacity:1;fill-rule:nonzero;stroke:none"
           d="m 313.94,76.3 28.27,0 0,57.87 -28.27,0 0,-57.87 z" />
        <path
           inkscape:connector-curvature="0"
           id="path4243"
           style="fill:#ff0000;fill-opacity:1;fill-rule:nonzero;stroke:none"
           d="m 347.87,76.3 28.27,0 0,257.54 -28.27,0 0,-257.54 z" />
        <path
           inkscape:connector-curvature="0"
           id="path4245"
           style="fill:#ff0000;fill-opacity:1;fill-rule:nonzero;stroke:none"
           d="m 381.79,76.3 28.27,0 0,285.52 -28.27,0 0,-285.52 z" />
        <path
           inkscape:connector-curvature="0"
           id="path4247"
           style="fill:#ff0000;fill-opacity:1;fill-rule:nonzero;stroke:none"
           d="m 415.72,76.3 28.27,0 0,52.78 -28.27,0 0,-52.78 z" />
        <path
           inkscape:connector-curvature="0"
           id="path4249"
           style="fill:#ff0000;fill-opacity:1;fill-rule:nonzero;stroke:none"
           d="m 449.65,76.3 28.27,0 0,12.08 -28.27,0 0,-12.08 z" />
        <path
           inkscape:connector-curvature="0"
           id="path4251"
           style="fill:#ff0000;fill-opacity:1;fill-rule:nonzero;stroke:none"
           d="m 483.57,76.3 28.27,0 0,213.67 -28.27,0 0,-213.67 z" />
        <path
           d="m 483.57,76.3 28.27,0 0,213.67 -28.27,0 0,-213.67 z"
           style="fill:#ff0000;fill-opacity:1;fill-rule:nonzero;stroke:none"
           id="path4271"
           inkscape:connector-curvature="0" />
      </g>
    </g>
    <path
       sodipodi:nodetypes="ssssssssssssssssssssssssssssssssssccsscsscsssscccccsssssssssscsccccsssssssssssccssscsssssscssssssssssssssscsssssscssscc"
       inkscape:connector-curvature="0"
       id="path4194"
       d="m 911.75391,-257.75 c -21.33867,0.1629 -44.20675,3.49239 -61.14258,17.56445 -8.019,6.49914 -12.99757,16.40488 -22.40071,21.23937 -9.67281,8.3436 -17.40745,18.67094 -24.93983,28.91127 -21.20517,30.69832 -35.32246,65.43667 -51.60505,98.817634 -6.40632,14.069441 -13.72681,28.028966 -16.90012,43.260245 -0.41728,5.467872 0.28563,12.729458 5.83309,15.359087 11.08601,2.559739 23.49098,-6.644763 23.09612,-18.297151 2.73692,-19.037888 9.22112,-37.337843 16.60899,-55.015545 9.58069,-20.78608 23.83358,-38.87748 37.03602,-57.41748 10.57553,-14.4379 23.96581,-27.02198 40.1114,-34.99016 22.38867,-10.71464 44.99451,-21.40123 68.89558,-28.32043 14.71668,-3.72425 30.2383,-2.74125 44.79709,1.20225 19.27136,4.28445 39.30539,7.71287 58.96969,3.94714 14.4752,-2.1284 30.1267,-5.75907 44.0839,0.52183 9.7361,5.82179 11.7966,18.04103 13.3279,28.34054 2.6925,18.30917 -2.9582,36.80561 0.1445,55.06054 3.2779,13.56141 15.4974,22.16925 27.0905,28.43497 18.0214,9.856935 38.475,13.325839 57.7956,19.657999 19.8802,6.920345 33.0103,26.670956 36.1973,46.915654 2.7612,25.526696 5.4934,51.0758796 9.4942,76.450092 5.4364,35.981947 13.7777,71.811825 28.7916,105.100015 8.6247,20.37465 16.3404,41.21018 27.1569,60.5679 23.608,44.74074 46.4165,90.72278 79.9857,129.05068 2.1816,2.32461 5.0539,5.949 7.5974,6.64913 1.2729,-196.05871 0.8018,-392.12251 0.9162,-588.18386 -121.2093,-1.25908 -242.4105,-3.75105 -363.63087,-3.55369 -29.10478,-0.3355 -58.2009,-1.37622 -87.31052,-1.27248 z m -96.92969,219.162109 c -10.12926,1.849653 -19.44031,10.967849 -19.41196,21.543485 3.08125,6.158563 11.11316,5.18909 16.72641,4.026828 7.23819,-0.524154 14.1798,5.9882743 13.25537,13.38832372 0.22517,11.91158628 -6.59698,22.29769528 -9.37245,33.57838228 -3.98293,12.063411 -8.88412,24.667165 -7.0883,37.575198 3.56284,10.82867 19.22911,16.854693 28.01455,8.491731 9.85286,-10.115985 9.42232,-25.160326 13.68719,-37.796082 0.70772,-2.131195 1.53734,-5.393463 3.26706,-6.327015 3.21835,3.563468 -0.11298,8.55873 1.13914,12.701976 0.13764,10.144363 -3.67726,20.41149 -1.47482,30.434361 2.95167,3.262063 7.67671,-0.009 9.06054,-3.228516 6.087,-8.078219 7.0131,-20.161021 16.48726,-25.474831 8.31161,-2.827799 17.59702,-3.367068 24.78846,-8.914425 12.7772,-8.221822 20.54393,-21.710746 29.99171,-33.1530728 5.93717,-3.5544868 13.23993,-2.27372 19.66042,-4.3452819 32.11225,-5.7425736 64.7991,-6.4112143 97.2559,-8.7298261 24.5868,-2.1226085 49.8928,-5.4285272 74.1346,0.9260308 16.0797,5.4645033 27.4134,19.237201 35.7576,33.417383 12.3874,19.570699 19.4805,42.504937 19.7666,65.694264 0.3574,5.525338 5.7448,11.538738 11.593,8.944998 4.5446,-2.03293 4.9838,-7.602151 4.3806,-11.900546 -0.02,-22.52735 6.2435,-44.698547 4.3219,-67.284175 -1.0267,-12.5979 -2.9912,-25.71527198 -9.65,-36.689572 -8.6147,-13.742205 -25.0385,-22.762508 -41.3933,-20.550652 -14.3206,0.786744 -28.4409,-2.017416 -42.6173,-3.43158 -77.9699,-7.154887 -156.09403,2.495044 -234.1523,1.716651 -18.5779,0.170171 -37.20882,-1.126504 -55.46619,-4.578199 -0.8865,-0.05752 -1.77409,-0.03251 -2.66169,-0.03584 z m 57.71289,71.65625 c 2.66021,7.643964 -2.03058,15.150589 -3.07763,22.643142 -2.33764,8.110103 -5.67049,16.216382 -11.563,22.419358 -4.2537,-1.113399 -2.52651,-6.469867 -2.07948,-9.547873 2.228,-12.520031 6.39006,-25.251715 14.70197,-35.063048 0.5947,-0.365106 1.32206,-0.552806 2.01814,-0.451579 z m 61.79054,22.696243 c -23.00621,-8.305629 -40.33229,-10.861183 -55.47487,10.573628 0.94676,24.614839 36.26976,40.19275 43.31905,80.01204 -2.54097,87.16728 -5.67261,-6.21234 -41.92638,8.96317 -9.5107,2.54539 -17.89955,-4.63421 -24.01686,-11.01096 -6.6371,-6.67865 -7.52148,-20.10211 -17.3589,-21.87711 -4.313,0.68512 -9.85833,11.00426 -7.88253,14.012 4.17507,10.68744 13.35403,18.63515 16.8086,29.6875 1.25073,2.85208 4.96159,4.8081 5.02539,7.94531 -2.22854,2.52673 -5.32387,-1.26497 -6.96177,-2.85717 -9.52888,-9.34267 -14.46506,-22.88542 -25.8312,-30.38697 -10.11317,-7.06162 -25.34048,0.57691 -27.21745,12.35452 -1.02377,9.05173 -2.12784,19.71759 4.56511,27.02048 7.65378,7.6027 15.34347,15.84415 20.95053,25.88792 6.98273,15.1284 -2.24703,45.12584 3.14929,69.39851 5.41343,24.34964 17.99035,56.2107 27.4539,66.14001 63.81935,54.69707 126.14457,49.83657 213.99014,38.50432 29.8565,-6.09401 61.8448,-6.40994 90.4442,5.24339 24.2831,9.63894 43.4723,27.90458 64.9005,42.24674 3.0576,1.8769 6.1576,4.43537 9.9589,3.2727 9.2385,-1.36608 18.4037,-3.18884 27.6544,-4.50107 l 15.7746,-2.59668 c -2.4984,-3.49712 -7.0838,-5.86002 -7.5839,-10.51563 9.3402,-3.0945 18.7206,-6.11859 27.5878,-10.42578 17.3981,-7.26815 35.3551,-16.0577 46.6094,-31.81641 2.8139,-1.75324 5.6467,1.62123 8.434,2.16325 8.8474,4.02205 17.1883,9.35608 24.0133,16.32113 -2.6807,-14.4631 -3.5573,-29.55046 -9.4217,-43.19914 -4.796,-9.51484 -12.9821,-17.75693 -23.0382,-21.48936 -5.8706,-0.94317 -9.8877,4.9439 -10.4465,10.15369 -1.9168,9.4459 1.1498,19.01647 2.1232,28.26332 -2.7917,1.91266 -6.6899,1.89779 -9.9143,3.06555 -19.498,4.93675 -40.5027,9.57227 -55.4942,23.96603 -3.9228,3.8525 -6.2748,9.0256 -8.5661,13.82194 -3.6674,1.33957 -5.5956,-3.38951 -8.0044,-5.28567 -24.3805,-26.7798 -43.6091,-58.52371 -54.7778,-93.02923 -4.7759,-19.35003 -5.4621,-40.69413 -17.6456,-57.3433 -2.1303,-2.6721 -7.9943,-1.38545 -6.7179,2.60384 1.233,9.00216 7.6296,16.23619 9.2139,25.1699 1.7635,6.25037 3.3544,13.975 -0.535,19.64032 -4.0105,1.58435 -6.4756,-3.31573 -7.2225,-6.49619 -13.0942,-29.10498 -6.5458,-114.65516 -24.3002,-141.63488 -9.6931,-14.963 -5.1599,-72.422551 -42.3746,-78.491498 -56.185,-9.16261 -115.5151,-6.499841 -169.26335,-13.47416 z m -95.91806,71.028238 c 12.74758,9.52377 15.79991,23.90387 22.47685,38.89062 0.91382,2.05111 -3.15196,5.35971 -5.022,3.25551 -8.15155,-6.45873 -8.38364,-14.76938 -14.38314,-23.32554 -3.10961,-4.72242 -7.637,-10.24749 -6.10379,-16.44476 0.15491,-0.62614 2.46818,-2.79712 3.03208,-2.37583 z m 496.64901,240.56458 c 2.5937,3.58061 -2.2651,6.77369 -4.5626,9.01179 -17.9568,16.28631 -40.8889,25.96843 -64.0233,32.29485 -3.5879,0.68014 -7.7609,-2.51716 -6.1797,-6.35742 2.285,-9.97538 12.2398,-15.16461 20.4672,-19.73023 16.7417,-8.79814 35.2813,-14.78719 54.2984,-15.21899 z"
       style="fill:#000000"
       inkscape:export-xdpi="100.0398"
       inkscape:export-ydpi="100.0398" />
    <path
       style="fill:#000000"
       d="m 3178.9015,-245.62817 c -21.3386,0.1629 -44.2067,3.49239 -61.1425,17.56445 -8.019,6.49914 -12.9976,16.40488 -22.4007,21.23937 -9.6729,8.3436 -17.4075,18.67094 -24.9399,28.91127 -21.2051,30.69832 -35.3224,65.43667 -51.605,98.817634 -6.4063,14.069441 -13.7268,28.028966 -16.9001,43.260245 -0.4173,5.467872 0.2856,12.729458 5.833,15.359087 11.0861,2.559739 23.491,-6.644763 23.0962,-18.297151 2.7369,-19.037888 9.2211,-37.337843 16.609,-55.015545 9.5806,-20.78608 23.8335,-38.87748 37.036,-57.41748 10.5755,-14.4379 23.9658,-27.02198 40.1114,-34.99016 22.3886,-10.71464 44.9945,-21.40123 68.8956,-28.32043 14.7166,-3.72425 30.2383,-2.74125 44.797,1.20225 19.2714,4.28445 39.3054,7.71287 58.9697,3.94714 14.4752,-2.1284 30.1267,-5.75907 44.0839,0.52183 9.7361,5.82179 11.7966,18.04103 13.3279,28.34054 2.6925,18.30917 -2.9582,36.80561 0.1445,55.06054 3.2779,13.56141 15.4974,22.16925 27.0905,28.43497 18.0214,9.856935 38.475,13.325839 57.7956,19.657999 19.8802,6.920345 33.0103,26.670956 36.1973,46.915654 2.7612,25.5266965 5.4934,51.07588 9.4942,76.450092 5.4364,35.981947 13.7777,71.811825 28.7916,105.100015 8.6247,20.37465 16.3404,41.21018 27.1569,60.5679 23.608,44.74074 46.4165,90.72278 79.9857,129.05068 2.1816,2.32461 5.0539,5.949 7.5974,6.64913 1.2729,-196.05871 0.8018,-392.12251 0.9162,-588.18386 -121.2093,-1.25908 -242.4105,-3.75105 -363.6308,-3.55369 -29.1048,-0.3355 -58.2009,-1.37622 -87.3106,-1.27248 z m -96.9296,219.162109 c -10.1293,1.849653 -19.4404,10.967849 -19.412,21.5434855 3.0812,6.158563 11.1132,5.18908995 16.7264,4.02682795 7.2382,-0.52415395 14.1798,5.98827435 13.2554,13.38832355 0.2251,11.911586 -6.597,22.297695 -9.3725,33.578382 -3.9829,12.063411 -8.8841,24.667165 -7.0883,37.575198 3.5629,10.82867 12.0862,16.854694 28.0146,12.777445 91.8627,2.389125 277.8507,2.987386 350.8289,7.007109 10.7537,-20.459209 14.4326,-46.297997 12.9882,-66.327581 -1.0267,-12.5979 -2.9912,-25.715272 -9.65,-36.68957155 -8.6147,-13.74220545 -25.0385,-22.76250845 -41.3933,-20.55065245 -14.3206,0.786744 -28.4409,-2.017416 -42.6173,-3.43158 -77.9699,-7.154887 -156.094,2.495044 -234.1523,1.716651 -18.5779,0.170171 -37.2088,-1.126504 -55.4662,-4.578199 -0.8865,-0.05752 -1.774,-0.03251 -2.6616,-0.03584 z m 89.5034,137.209631 c -23.0062,-8.30562 -44.0464,10.55876 -44.0464,10.55876 0,0 -20.873,4.49334 13.3191,40.02691 0,0 24.8799,52.46216 37.0813,57.46251 11.6101,6.617 -12.8345,-66.62307 -10.5636,-54.30887 3.1794,16.54544 -3.9683,36.05392 -19.8726,43.35849 -9.5107,2.54539 -17.8996,-4.63421 -24.0169,-11.01096 -6.6371,-6.67865 -12.8786,-15.45925 -22.716,-17.23425 -4.313,0.68512 -4.5012,6.3614 -2.5254,9.36914 4.1751,10.68744 13.354,18.63515 16.8086,29.6875 1.2507,2.85208 4.9616,4.8081 5.0254,7.94531 -2.2286,2.52673 -5.3239,-1.26497 -6.9618,-2.85717 -9.5289,-9.34267 -14.465,-22.88542 -25.8312,-30.38697 -10.1132,-7.06162 -25.3405,0.57691 -27.2174,12.35452 -1.0238,9.05173 -2.1279,19.71759 4.5651,27.02048 7.6538,7.6027 15.3434,15.84415 20.9505,25.88792 6.9827,15.1284 -2.6785,53.88543 3.1493,69.39851 4.5237,13.1973 13.9497,23.88582 23.4133,33.81513 7.5176,7.14202 16.392,13.96823 26.8574,15.69922 15.8023,1.79946 49.3438,8.96751 64.923,9.84208 29.8734,1.677 90.2806,10.13017 126.2503,4.8818 29.8565,-6.09401 61.8448,-6.40994 90.4442,5.24339 24.2831,9.63894 43.4723,27.90458 64.9005,42.24674 3.0576,1.8769 6.1576,4.43537 9.9589,3.2727 9.2385,-1.36608 18.4037,-3.18884 27.6544,-4.50107 l 15.7746,-2.59668 c -2.4984,-3.49712 -7.0838,-5.86002 -7.5839,-10.51563 9.3402,-3.0945 18.7206,-6.11859 27.5878,-10.42578 17.3981,-7.26815 35.3551,-16.0577 46.6094,-31.81641 2.8139,-1.75324 5.6467,1.62123 8.434,2.16325 8.8474,4.02205 17.1883,9.35608 24.0133,16.32113 -2.6807,-14.4631 -3.5573,-29.55046 -9.4217,-43.19914 -4.796,-9.51484 -12.9821,-17.75693 -23.0382,-21.48936 -5.8706,-0.94317 -9.8877,4.9439 -10.4465,10.15369 -1.9168,9.4459 1.1498,19.01647 2.1232,28.26332 -2.7917,1.91266 -6.6899,1.89779 -9.9143,3.06555 -19.498,4.93675 -40.5027,9.57227 -55.4942,23.96603 -3.9228,3.8525 -6.2748,9.0256 -8.5661,13.82194 -3.6674,1.33957 -5.5956,-3.38951 -8.0044,-5.28567 -24.3805,-26.7798 -43.6091,-58.52371 -54.7778,-93.02923 -4.7759,-19.35003 -5.4621,-40.69413 -17.6456,-57.3433 -2.1303,-2.6721 -7.9943,-1.38545 -6.7179,2.60384 1.233,9.00216 7.6296,16.23619 9.2139,25.1699 1.7635,6.25037 3.3544,13.975 -0.535,19.64032 -4.0105,1.58435 -6.4756,-3.31573 -7.2225,-6.49619 -13.0942,-29.10498 -17.9744,-111.79802 -35.7288,-138.77774 -9.6931,-14.963 -24.1819,-26.66269 -40.946,-32.77721 -22.6887,-8.68739 -47.5387,-8.24716 -71.3231,-5.62468 -16.6845,1.62308 -33.7464,0.91675 -49.8385,-4.09894 -14.0022,-3.82014 -54.2773,-4.47397 -68.1017,-9.46483 z m -70.2038,71.0772 c 14.1762,7.73806 25.1723,21.15133 30.334,36.39062 0.5672,2.17266 -1.7234,4.64542 -3.5934,2.54122 -8.1516,-6.45873 -15.8837,-13.69795 -21.8832,-22.25411 -3.1096,-4.72242 -5.9524,-10.09188 -6.4609,-15.73047 0.3039,-0.56895 0.9147,-1.09205 1.6035,-0.94726 z m 500.9347,197.65848 c 2.5937,3.58061 -2.2651,6.77369 -4.5626,9.01179 -17.9568,16.28631 -40.8889,25.96843 -64.0233,32.29485 -3.5879,0.68014 -7.7609,-2.51716 -6.1797,-6.35742 2.285,-9.97538 12.2398,-15.16461 20.4672,-19.73023 16.7417,-8.79814 35.2813,-14.78719 54.2984,-15.21899 z"
       id="path4267"
       inkscape:connector-curvature="0"
       sodipodi:nodetypes="sssssssssssssssssssssssssssssssssscccsssssssccssssssssssssssssscssscsssssscsssssssssssssssscssssssscssscc"
       inkscape:export-xdpi="100.0398"
       inkscape:export-ydpi="100.0398" />
    <path
       style="fill:#000000"
       d="m 1591.7539,-254.89286 c -21.3387,0.1629 -44.2067,3.49239 -61.1426,17.56445 -8.019,6.49914 -12.9975,16.40488 -22.4007,21.23937 -9.6728,8.3436 -17.4074,18.67094 -24.9398,28.91127 -21.2052,30.69832 -35.3225,65.43667 -51.6051,98.817637 -6.4063,14.069441 -13.7268,28.028966 -16.9001,43.260245 -0.4173,5.467872 0.2856,12.729458 5.8331,15.359087 11.086,2.559739 23.491,-6.644763 23.0961,-18.297151 2.7369,-19.037888 9.2211,-37.337843 16.609,-55.015548 9.5807,-20.78608 23.8336,-38.87748 37.036,-57.41748 10.5756,-14.4379 23.9658,-27.02198 40.1114,-34.99016 22.3887,-10.71464 44.9945,-21.40123 68.8956,-28.32043 14.7167,-3.72425 30.2383,-2.74125 44.7971,1.20225 19.2714,4.28445 39.3054,7.71287 58.9697,3.94714 14.4752,-2.1284 30.1267,-5.75907 44.0839,0.52183 9.7361,5.82179 11.7966,18.04103 13.3279,28.34054 2.6925,18.30917 -2.9582,36.80561 0.1445,55.06054 3.2779,13.56141 15.4974,22.16925 27.0905,28.43497 18.0214,9.856938 38.475,13.325842 57.7956,19.658002 19.8802,6.920345 33.0103,26.670956 36.1973,46.915654 2.7612,25.526696 5.4934,51.075879 9.4942,76.450092 5.4364,35.981947 13.7777,71.811822 28.7916,105.100012 8.6247,20.37465 16.3404,41.21018 27.1569,60.5679 23.608,44.74074 46.4165,90.72278 79.9857,129.05068 2.1816,2.32461 5.0539,5.949 7.5974,6.64913 1.2729,-196.05871 0.8018,-392.122507 0.9162,-588.18386 -121.2093,-1.25908 -242.4105,-3.75105 -363.6309,-3.55369 -29.1048,-0.3355 -58.2009,-1.37622 -87.3105,-1.27248 z m -96.9297,219.162112 c -10.1292,1.849653 -19.4403,10.967849 -19.4119,21.543485 3.0812,6.1585628 11.1131,5.1890898 16.7264,4.026828 7.2382,-0.524154 14.1798,5.9882741 13.2553,13.3883236 0.2252,11.9115864 -6.5969,22.2976954 -9.3724,33.5783824 -3.9829,12.063411 -8.8841,24.667165 -7.0883,37.575198 3.5628,10.82867 19.2291,16.854693 28.0145,8.491731 9.8529,-10.115985 9.4224,-25.160326 13.6872,-37.796082 0.7077,-2.131195 1.5374,-5.393463 3.2671,-6.327015 3.2183,3.563468 -0.113,8.55873 1.1391,12.701976 0.1377,10.144363 -3.6772,20.41149 -1.4748,30.434361 2.9517,3.262063 7.6767,-0.009 9.0605,-3.228516 6.087,-8.078219 7.0131,-20.161021 16.4873,-25.474831 8.3116,-2.827799 17.597,-3.367068 24.7885,-8.914425 12.7772,-8.221822 20.5439,-21.710746 29.9917,-33.153073 5.9371,-3.5544868 13.2399,-2.27372 19.6604,-4.3452819 32.1122,-5.7425736 64.7991,-6.41121426 97.2559,-8.7298261 24.5868,-2.1226085 49.8928,-5.4285272 74.1346,0.9260308 16.0797,5.4645033 27.4134,19.2372012 35.7576,33.4173832 12.3874,19.570699 19.4805,42.504937 19.7666,65.694264 0.3574,5.525335 5.7448,11.538735 11.593,8.944995 4.5446,-2.03293 4.9838,-7.602148 4.3806,-11.900543 -0.02,-22.52735 6.2435,-44.698547 4.3219,-67.284175 -1.0267,-12.5979 -2.9912,-25.7152721 -9.65,-36.6895722 -8.6147,-13.7422048 -25.0385,-22.7625078 -41.3933,-20.5506518 -14.3206,0.786744 -28.4409,-2.017416 -42.6173,-3.43158 -77.9699,-7.154887 -156.094,2.495044 -234.1523,1.716651 -18.5779,0.170171 -37.2088,-1.126504 -55.4662,-4.578199 -0.8865,-0.05752 -1.7741,-0.03251 -2.6617,-0.03584 z m 57.7129,71.65625 c 2.6602,7.643964 -2.0306,15.150589 -3.0776,22.643142 -2.3377,8.110103 -5.6705,16.216382 -11.563,22.419358 -4.2537,-1.113399 -2.5265,-6.469867 -2.0795,-9.547873 2.228,-12.520031 6.3901,-25.251715 14.702,-35.063048 0.5947,-0.365106 1.322,-0.552806 2.0181,-0.451579 z m 53.9334,31.267672 c -35.1491,0.980085 -59.1278,10.516625 -74.2703,31.951436 0.9467,24.61484 62.9223,10.24351 69.9716,50.0628 -2.5409,87.16728 -5.6726,-6.21234 -41.9264,8.96317 -9.5107,2.54539 -17.8995,-4.63421 -24.0168,-11.01096 -6.6371,-6.67865 -7.5215,-20.10211 -17.3589,-21.87711 -4.313,0.68512 -9.8583,11.00426 -7.8825,14.012 4.175,10.68744 13.354,18.63515 16.8086,29.6875 1.2507,2.85208 4.9615,4.8081 5.0253,7.94531 -2.2285,2.52673 -5.3238,-1.26497 -6.9617,-2.85717 -9.5289,-9.34267 -14.4651,-22.88542 -25.8312,-30.38697 -10.1132,-7.06162 -25.3405,0.57691 -27.2175,12.35452 -1.0237,9.05173 -2.1278,19.71759 4.5651,27.02048 7.6538,7.6027 15.3435,15.84415 20.9506,25.88792 6.9827,15.1284 -2.2471,45.12584 3.1493,69.39851 5.4134,24.34964 17.9903,56.2107 27.4539,66.14001 63.8193,54.69707 126.1445,49.83657 213.9901,38.50432 29.8565,-6.09401 61.8448,-6.40994 90.4442,5.24339 24.2831,9.63894 43.4723,27.90458 64.9005,42.24674 3.0576,1.8769 6.1576,4.43537 9.9589,3.2727 9.2385,-1.36608 18.4037,-3.18884 27.6544,-4.50107 l 15.7746,-2.59668 c -2.4984,-3.49712 -7.0838,-5.86002 -7.5839,-10.51563 9.3402,-3.0945 18.7206,-6.11859 27.5878,-10.42578 17.3981,-7.26815 35.3551,-16.0577 46.6094,-31.81641 2.8139,-1.75324 5.6467,1.62123 8.434,2.16325 8.8474,4.02205 17.1883,9.35608 24.0133,16.32113 -2.6807,-14.4631 -3.5573,-29.55046 -9.4217,-43.19914 -4.796,-9.51484 -12.9821,-17.75693 -23.0382,-21.48936 -5.8706,-0.94317 -9.8877,4.9439 -10.4465,10.15369 -1.9168,9.4459 1.1498,19.01647 2.1232,28.26332 -2.7917,1.91266 -6.6899,1.89779 -9.9143,3.06555 -19.498,4.93675 -40.5027,9.57227 -55.4942,23.96603 -3.9228,3.8525 -6.2748,9.0256 -8.5661,13.82194 -3.6674,1.33957 -5.5956,-3.38951 -8.0044,-5.28567 -24.3805,-26.7798 -43.6091,-58.52371 -54.7778,-93.02923 -4.7759,-19.35003 -5.4621,-40.69413 -17.6456,-57.3433 -2.1303,-2.6721 -7.9943,-1.38545 -6.7179,2.60384 1.233,9.00216 7.6296,16.23619 9.2139,25.1699 1.7635,6.25037 3.3544,13.975 -0.535,19.64032 -4.0105,1.58435 -6.4756,-3.31573 -7.2225,-6.49619 -13.0942,-29.10498 -6.5458,-114.65516 -24.3002,-141.63488 -9.6931,-14.963 -4.932,-74.039797 -42.3746,-78.491495 -59.0422,-7.019753 -134.8008,-15.071269 -177.1205,-4.902731 z m -88.0609,62.456806 c 12.7476,9.52377 15.7999,23.90387 22.4768,38.89062 0.9139,2.05111 -3.1519,5.35971 -5.022,3.25551 -8.1515,-6.45873 -8.3836,-14.76938 -14.3831,-23.32554 -3.1096,-4.72242 -7.637,-10.24749 -6.1038,-16.44476 0.1549,-0.62614 2.4682,-2.79712 3.0321,-2.37583 z m 496.649,240.56458 c 2.5937,3.58061 -2.2651,6.77369 -4.5626,9.01179 -17.9568,16.28631 -40.8889,25.96843 -64.0233,32.29485 -3.5879,0.68014 -7.7609,-2.51716 -6.1797,-6.35742 2.285,-9.97538 12.2398,-15.16461 20.4672,-19.73023 16.7417,-8.79814 35.2813,-14.78719 54.2984,-15.21899 z"
       id="path4269"
       inkscape:connector-curvature="0"
       sodipodi:nodetypes="ssssssssssssssssssssssssssssssssssccsscsscsssscccccsssssssssscsccccsssssssssssccssscsssssscssssssssssssssscsssssscssscc"
       inkscape:export-xdpi="100.0398"
       inkscape:export-ydpi="100.0398" />
    <g
       id="g4275"
       transform="matrix(1.0144545,0,0,-1.0144545,2228.2924,85.446992)" />
    <g
       id="g4277"
       transform="matrix(1.0144545,0,0,-1.0144545,2228.2924,85.446992)" />
    <path
       style="fill:#000000"
       d="m 3875.3102,-245.62817 c -21.3386,0.1629 -44.2067,3.49239 -61.1426,17.56445 -8.019,6.49914 -12.9975,16.40488 -22.4007,21.23937 -9.6728,8.3436 -17.4074,18.67094 -24.9398,28.91127 -21.2052,30.69832 -35.3225,65.43667 -51.605,98.817634 -6.4064,14.069441 -13.7269,28.028966 -16.9002,43.260245 -0.4172,5.467872 0.2857,12.729458 5.8331,15.359087 11.086,2.559739 23.491,-6.644763 23.0961,-18.297151 2.737,-19.037888 9.2212,-37.337843 16.609,-55.015545 9.5807,-20.78608 23.8336,-38.87748 37.0361,-57.41748 10.5755,-14.4379 23.9658,-27.02198 40.1114,-34.99016 22.3886,-10.71464 44.9945,-21.40123 68.8955,-28.32043 14.7167,-3.72425 30.2383,-2.74125 44.7971,1.20225 19.2714,4.28445 39.3054,7.71287 58.9697,3.94714 14.4752,-2.1284 30.1267,-5.75907 44.0839,0.52183 9.7361,5.82179 11.7966,18.04103 13.3279,28.34054 2.6925,18.30917 -2.9582,36.80561 0.1445,55.06054 3.2779,13.56141 15.4974,22.16925 27.0905,28.43497 18.0214,9.856935 38.475,13.325839 57.7956,19.657999 19.8802,6.920345 33.0103,26.670956 36.1973,46.915654 2.7612,25.5266965 5.4934,51.07588 9.4942,76.450092 5.4364,35.981947 13.7777,71.811825 28.7916,105.100015 8.6247,20.37465 16.3404,41.21018 27.1569,60.5679 23.608,44.74074 46.4165,90.72278 79.9857,129.05068 2.1816,2.32461 5.0539,5.949 7.5974,6.64913 1.2729,-196.05871 0.8018,-392.12251 0.9162,-588.18386 -121.2093,-1.25908 -242.4105,-3.75105 -363.6309,-3.55369 -29.1047,-0.3355 -58.2009,-1.37622 -87.3105,-1.27248 z m -96.9297,219.162109 c -10.1292,1.849653 -19.4403,10.967849 -19.4119,21.5434855 3.0812,6.158563 11.1131,5.18908996 16.7264,4.02682796 7.2382,-0.52415396 14.1798,5.98827434 13.2554,13.38832354 0.2251,11.911586 -6.597,22.297695 -9.3725,33.578382 -3.9829,12.063411 -8.8841,24.667165 -7.0883,37.575198 3.5628,10.82867 19.2291,16.854694 28.0146,8.491731 9.8528,-10.115985 9.4223,-25.160326 13.6871,-37.796082 0.7078,-2.131195 1.5374,-5.393463 3.2671,-6.327015 3.2184,3.563468 -0.113,8.55873 1.1391,12.701976 0.1377,10.144363 -3.6772,20.41149 -1.4748,30.434361 2.9517,3.262063 7.6767,-0.009 9.0606,-3.228516 6.087,-8.078219 7.0131,-20.161021 16.4872,-25.474831 8.3116,-2.827799 17.597,-3.367068 24.7885,-8.914425 12.7772,-8.221822 20.5439,-21.710746 29.9917,-33.153072 5.9372,-3.554487 13.2399,-2.27372 19.6604,-4.345282 32.1123,-5.742574 64.7991,-6.4112145 97.2559,-8.7298263 24.5868,-2.1226085 49.8928,-5.4285272 74.1346,0.9260308 16.0797,5.4645035 27.4134,19.2372005 35.7576,33.4173825 12.3874,19.570699 19.4805,42.504937 19.7666,65.694262 0.3574,5.52534 5.7448,11.53874 11.593,8.945 4.5446,-2.03293 4.9838,-7.60215 4.3806,-11.90055 -0.02,-22.527346 6.2435,-44.698543 4.3219,-67.284171 -1.0267,-12.5979 -2.9912,-25.715272 -9.65,-36.68957154 -8.6147,-13.74220546 -25.0385,-22.76250846 -41.3933,-20.55065246 -14.3206,0.786744 -28.4409,-2.017416 -42.6173,-3.43158 -77.9699,-7.154887 -156.094,2.495044 -234.1523,1.716651 -18.5779,0.170171 -37.2088,-1.126504 -55.4662,-4.578199 -0.8865,-0.05752 -1.7741,-0.03251 -2.6617,-0.03584 z m 57.7129,71.65625 c 2.6602,7.643964 -2.0306,15.150589 -3.0776,22.643142 -2.3376,8.110103 -5.6705,16.216382 -11.563,22.419358 -4.2537,-1.113399 -2.5265,-6.469867 -2.0795,-9.547873 2.228,-12.520031 6.3901,-25.251715 14.702,-35.063048 0.5947,-0.365106 1.322,-0.552806 2.0181,-0.451579 z m 61.7906,22.696243 c -23.0062,-8.305629 -40.3323,-10.861183 -55.4749,10.573628 0.9468,24.61484 36.2698,40.19275 43.319,80.01204 -2.5409,87.16728 -5.6726,-6.21234 -41.9263,8.96317 -9.5107,2.54539 -17.8996,-4.63421 -24.0169,-11.01096 -6.6371,-6.67865 -7.5215,-20.10211 -17.3589,-21.87711 -4.313,0.68512 -9.8583,11.00426 -7.8825,14.012 4.175,10.68744 13.354,18.63515 16.8086,29.6875 1.2507,2.85208 4.9616,4.8081 5.0254,7.94531 -2.2286,2.52673 -5.3239,-1.26497 -6.9618,-2.85717 -9.5289,-9.34267 -14.4651,-22.88542 -25.8312,-30.38697 -10.1132,-7.06162 -25.3405,0.57691 -27.2175,12.35452 -1.0237,9.05173 -2.1278,19.71759 4.5652,27.02048 7.6537,7.6027 15.3434,15.84415 20.9505,25.88792 6.9827,15.1284 -2.247,45.12584 3.1493,69.39851 5.4134,24.34964 17.9903,56.2107 27.4539,66.14001 63.8193,54.69707 126.1445,49.83657 213.9901,38.50432 29.8565,-6.09401 61.8448,-6.40994 90.4442,5.24339 24.2831,9.63894 43.4723,27.90458 64.9005,42.24674 3.0576,1.8769 6.1576,4.43537 9.9589,3.2727 9.2385,-1.36608 18.4037,-3.18884 27.6544,-4.50107 l 15.7746,-2.59668 c -2.4984,-3.49712 -7.0838,-5.86002 -7.5839,-10.51563 9.3402,-3.0945 18.7206,-6.11859 27.5878,-10.42578 17.3981,-7.26815 35.3551,-16.0577 46.6094,-31.81641 2.8139,-1.75324 5.6467,1.62123 8.434,2.16325 8.8474,4.02205 17.1883,9.35608 24.0133,16.32113 -2.6807,-14.4631 -3.5573,-29.55046 -9.4217,-43.19914 -4.796,-9.51484 -12.9821,-17.75693 -23.0382,-21.48936 -5.8706,-0.94317 -9.8877,4.9439 -10.4465,10.15369 -1.9168,9.4459 1.1498,19.01647 2.1232,28.26332 -2.7917,1.91266 -6.6899,1.89779 -9.9143,3.06555 -19.498,4.93675 -40.5027,9.57227 -55.4942,23.96603 -3.9228,3.8525 -6.2748,9.0256 -8.5661,13.82194 -3.6674,1.33957 -5.5956,-3.38951 -8.0044,-5.28567 -24.3805,-26.7798 -43.6091,-58.52371 -54.7778,-93.02923 -4.7759,-19.35003 -5.4621,-40.69413 -17.6456,-57.3433 -2.1303,-2.6721 -7.9943,-1.38545 -6.7179,2.60384 1.233,9.00216 7.6296,16.23619 9.2139,25.1699 1.7635,6.25037 3.3544,13.975 -0.535,19.64032 -4.0105,1.58435 -6.4756,-3.31573 -7.2225,-6.49619 -13.0942,-29.10498 -6.5458,-114.65516 -24.3002,-141.63488 -9.6931,-14.963 -5.1599,-72.422551 -42.3746,-78.491498 -56.185,-9.16261 -115.5151,-6.499841 -169.2633,-13.47416 z m -95.9181,71.028238 c 12.7476,9.52377 15.7999,23.90387 22.4769,38.89062 0.9138,2.05111 -3.152,5.35971 -5.022,3.25551 -8.1516,-6.45873 -8.3837,-14.76938 -14.3832,-23.32554 -3.1096,-4.72242 -7.637,-10.24749 -6.1038,-16.44476 0.1549,-0.62614 2.4682,-2.79712 3.0321,-2.37583 z m 496.649,240.56458 c 2.5937,3.58061 -2.2651,6.77369 -4.5626,9.01179 -17.9568,16.28631 -40.8889,25.96843 -64.0233,32.29485 -3.5879,0.68014 -7.7609,-2.51716 -6.1797,-6.35742 2.285,-9.97538 12.2398,-15.16461 20.4672,-19.73023 16.7417,-8.79814 35.2813,-14.78719 54.2984,-15.21899 z"
       id="path4338"
       inkscape:connector-curvature="0"
       sodipodi:nodetypes="ssssssssssssssssssssssssssssssssssccsscsscsssscccccsssssssssscsccccsssssssssssccssscsssssscssssssssssssssscsssssscssscc"
       inkscape:export-xdpi="100.0398"
       inkscape:export-ydpi="100.0398" />
    <g
       id="g4340"
       inkscape:label="UPSID_LangDistribution"
       transform="matrix(1.0144545,0,0,-1.0144545,3655.4943,67.264245)"
       inkscape:export-xdpi="100.0398"
       inkscape:export-ydpi="100.0398">
      <g
         id="g4342" />
      <g
         id="g4344" />
      <g
         id="g4346">
        <path
           d="m 110.38,76.3 28.27,0 0,286.16 -28.27,0 0,-286.16 z"
           style="fill:#ff0000;fill-opacity:1;fill-rule:nonzero;stroke:none"
           id="path4348"
           inkscape:connector-curvature="0" />
        <path
           d="m 144.31,76.3 28.27,0 0,129.09 -28.27,0 0,-129.09 z"
           style="fill:#ff0000;fill-opacity:1;fill-rule:nonzero;stroke:none"
           id="path4350"
           inkscape:connector-curvature="0" />
        <path
           d="m 178.23,76.3 28.27,0 0,100.47 -28.27,0 0,-100.47 z"
           style="fill:#ff0000;fill-opacity:1;fill-rule:nonzero;stroke:none"
           id="path4352"
           inkscape:connector-curvature="0" />
        <path
           d="m 212.16,76.3 28.27,0 0,131.63 -28.27,0 0,-131.63 z"
           style="fill:#ff0000;fill-opacity:1;fill-rule:nonzero;stroke:none"
           id="path4354"
           inkscape:connector-curvature="0" />
        <path
           d="m 246.09,76.3 28.27,0 0,183.14 -28.27,0 0,-183.14 z"
           style="fill:#ff0000;fill-opacity:1;fill-rule:nonzero;stroke:none"
           id="path4356"
           inkscape:connector-curvature="0" />
        <path
           d="m 280.01,76.3 28.27,0 0,183.78 -28.27,0 0,-183.78 z"
           style="fill:#ff0000;fill-opacity:1;fill-rule:nonzero;stroke:none"
           id="path4358"
           inkscape:connector-curvature="0" />
        <path
           d="m 313.94,76.3 28.27,0 0,57.87 -28.27,0 0,-57.87 z"
           style="fill:#ff0000;fill-opacity:1;fill-rule:nonzero;stroke:none"
           id="path4360"
           inkscape:connector-curvature="0" />
        <path
           d="m 347.87,76.3 28.27,0 0,257.54 -28.27,0 0,-257.54 z"
           style="fill:#ff0000;fill-opacity:1;fill-rule:nonzero;stroke:none"
           id="path4362"
           inkscape:connector-curvature="0" />
        <path
           d="m 381.79,76.3 28.27,0 0,285.52 -28.27,0 0,-285.52 z"
           style="fill:#ff0000;fill-opacity:1;fill-rule:nonzero;stroke:none"
           id="path4364"
           inkscape:connector-curvature="0" />
        <path
           d="m 415.72,76.3 28.27,0 0,52.78 -28.27,0 0,-52.78 z"
           style="fill:#ff0000;fill-opacity:1;fill-rule:nonzero;stroke:none"
           id="path4366"
           inkscape:connector-curvature="0" />
        <path
           d="m 449.65,76.3 28.27,0 0,12.08 -28.27,0 0,-12.08 z"
           style="fill:#ff0000;fill-opacity:1;fill-rule:nonzero;stroke:none"
           id="path4368"
           inkscape:connector-curvature="0" />
        <path
           d="m 483.57,76.3 28.27,0 0,213.67 -28.27,0 0,-213.67 z"
           style="fill:#ff0000;fill-opacity:1;fill-rule:nonzero;stroke:none"
           id="path4370"
           inkscape:connector-curvature="0" />
        <path
           inkscape:connector-curvature="0"
           id="path4372"
           style="fill:#ff0000;fill-opacity:1;fill-rule:nonzero;stroke:none"
           d="m 483.57,76.3 28.27,0 0,213.67 -28.27,0 0,-213.67 z" />
      </g>
    </g>
    <path
       sodipodi:nodetypes="cc"
       inkscape:connector-curvature="0"
       id="path4374"
       d="m 3780.2952,-19.409646 6.0609,107.07617"
       style="fill:none;fill-rule:evenodd;stroke:#ff0000;stroke-width:3.5999999;stroke-linecap:butt;stroke-linejoin:miter;stroke-miterlimit:4;stroke-dasharray:none;stroke-opacity:1;marker-end:url(#marker4398)"
       inkscape:export-xdpi="100.0398"
       inkscape:export-ydpi="100.0398" />
    <path
       sodipodi:nodetypes="cc"
       style="fill:none;fill-rule:evenodd;stroke:#ff0000;stroke-width:3.5999999;stroke-linecap:butt;stroke-linejoin:miter;stroke-miterlimit:4;stroke-dasharray:none;stroke-opacity:1;marker-end:url(#marker5168)"
       d="m 3815.6458,-19.409646 -5.9953,93.944187"
       id="path4376"
       inkscape:connector-curvature="0"
       inkscape:export-xdpi="100.0398"
       inkscape:export-ydpi="100.0398" />
    <path
       sodipodi:nodetypes="cc"
       inkscape:connector-curvature="0"
       id="path4378"
       d="M 3848.966,-19.409646 3822.7825,88.676677"
       style="fill:none;fill-rule:evenodd;stroke:#ff0000;stroke-width:3.5999999;stroke-linecap:butt;stroke-linejoin:miter;stroke-miterlimit:4;stroke-dasharray:none;stroke-opacity:1;marker-end:url(#marker5104)"
       inkscape:export-xdpi="100.0398"
       inkscape:export-ydpi="100.0398" />
    <path
       style="fill:none;fill-rule:evenodd;stroke:#ff0000;stroke-width:3.5999999;stroke-linecap:butt;stroke-linejoin:miter;stroke-miterlimit:4;stroke-dasharray:none;stroke-opacity:1;marker-end:url(#marker5046)"
       d="m 3884.3423,-19.409646 -42.3669,85.862967"
       id="path4380"
       inkscape:connector-curvature="0"
       sodipodi:nodetypes="cc"
       inkscape:export-xdpi="100.0398"
       inkscape:export-ydpi="100.0398" />
    <path
       sodipodi:nodetypes="cc"
       inkscape:connector-curvature="0"
       id="path4382"
       d="m 3917.97,-19.914722 -43.954,72.225907"
       style="fill:none;fill-rule:evenodd;stroke:#ff0000;stroke-width:3.5999999;stroke-linecap:butt;stroke-linejoin:miter;stroke-miterlimit:4;stroke-dasharray:none;stroke-opacity:1;marker-end:url(#marker4994)"
       inkscape:export-xdpi="100.0398"
       inkscape:export-ydpi="100.0398" />
    <path
       style="fill:none;fill-rule:evenodd;stroke:#ff0000;stroke-width:3.5999999;stroke-linecap:butt;stroke-linejoin:miter;stroke-miterlimit:4;stroke-dasharray:none;stroke-opacity:1;marker-end:url(#marker4948)"
       d="m 3948.4207,-20.419798 -49.1509,43.436559"
       id="path4384"
       inkscape:connector-curvature="0"
       sodipodi:nodetypes="cc"
       inkscape:export-xdpi="100.0398"
       inkscape:export-ydpi="100.0398" />
    <path
       sodipodi:nodetypes="cc"
       inkscape:connector-curvature="0"
       id="path4386"
       d="m 3986.1429,-20.924875 0.5051,30.8096527"
       style="fill:none;fill-rule:evenodd;stroke:#ff0000;stroke-width:3.5999999;stroke-linecap:butt;stroke-linejoin:miter;stroke-miterlimit:4;stroke-dasharray:none;stroke-opacity:1;marker-end:url(#marker4908)"
       inkscape:export-xdpi="100.0398"
       inkscape:export-ydpi="100.0398" />
    <path
       style="fill:none;fill-rule:evenodd;stroke:#ff0000;stroke-width:3.5999999;stroke-linecap:butt;stroke-linejoin:miter;stroke-miterlimit:4;stroke-dasharray:none;stroke-opacity:1;marker-end:url(#marker4874)"
       d="m 4054.3282,-20.419798 32.83,30.3045756"
       id="path4388"
       inkscape:connector-curvature="0"
       sodipodi:nodetypes="cc"
       inkscape:export-xdpi="100.0398"
       inkscape:export-ydpi="100.0398" />
    <path
       sodipodi:nodetypes="cc"
       inkscape:connector-curvature="0"
       id="path4390"
       d="m 4020.9932,-32.036553 0,41.4162544"
       style="fill:none;fill-rule:evenodd;stroke:#ff0000;stroke-width:3.5999999;stroke-linecap:butt;stroke-linejoin:miter;stroke-miterlimit:4;stroke-dasharray:none;stroke-opacity:1;marker-end:url(#marker4846)"
       inkscape:export-xdpi="100.0398"
       inkscape:export-ydpi="100.0398" />
    <path
       sodipodi:nodetypes="cc"
       inkscape:connector-curvature="0"
       id="path4392"
       d="M 4091.1988,-20.419798 4145.747,102.81881"
       style="fill:none;fill-rule:evenodd;stroke:#ff0000;stroke-width:3.5999999;stroke-linecap:butt;stroke-linejoin:miter;stroke-miterlimit:4;stroke-dasharray:none;stroke-opacity:1;marker-end:url(#marker4824)"
       inkscape:export-xdpi="100.0398"
       inkscape:export-ydpi="100.0398" />
    <path
       style="fill:none;fill-rule:evenodd;stroke:#ff0000;stroke-width:3.5999999;stroke-linecap:butt;stroke-linejoin:miter;stroke-miterlimit:4;stroke-dasharray:none;stroke-opacity:1;marker-end:url(#DotM)"
       d="m 4121.5034,-19.409645 75.7614,139.401055"
       id="path4394"
       inkscape:connector-curvature="0"
       sodipodi:nodetypes="cc"
       inkscape:export-xdpi="100.0398"
       inkscape:export-ydpi="100.0398" />
    <path
       sodipodi:nodetypes="cc"
       inkscape:connector-curvature="0"
       id="path4396"
       d="m 4156.8587,-19.409645 c 60.8836,122.633235 108.783,250.676505 105.561,400.020415"
       style="fill:none;fill-rule:evenodd;stroke:#ff0000;stroke-width:3.5999999;stroke-linecap:butt;stroke-linejoin:miter;stroke-miterlimit:4;stroke-dasharray:none;stroke-opacity:1;marker-end:url(#marker4518)"
       inkscape:export-xdpi="100.0398"
       inkscape:export-ydpi="100.0398" />
    <g
       transform="translate(730.99999,-18.182747)"
       id="g4416"
       inkscape:export-xdpi="100.0398"
       inkscape:export-ydpi="100.0398">
      <path
         d="m 2340.2679,8.0441137 28.6786,0 0,-150.0000037 -28.6786,0 0,150.0000036 z"
         style="fill:#ff0000;fill-opacity:1;fill-rule:nonzero;stroke:none"
         id="path4418"
         inkscape:connector-curvature="0" />
      <path
         d="m 2374.6883,8.0441137 28.6787,0 0,-150.0000037 -28.6787,0 0,150.0000037 z"
         style="fill:#ff0000;fill-opacity:1;fill-rule:nonzero;stroke:none"
         id="path4420"
         inkscape:connector-curvature="0" />
      <path
         d="m 2409.0986,8.0441137 28.6787,0 0,-150.0000037 -28.6787,0 0,150.0000037 z"
         style="fill:#ff0000;fill-opacity:1;fill-rule:nonzero;stroke:none"
         id="path4422"
         inkscape:connector-curvature="0" />
      <path
         d="m 2443.5191,8.0441137 28.6786,0 0,-150.0000037 -28.6786,0 0,150.0000036 z"
         style="fill:#ff0000;fill-opacity:1;fill-rule:nonzero;stroke:none"
         id="path4424"
         inkscape:connector-curvature="0" />
      <path
         d="m 2546.7702,8.0441137 28.6787,0 0,-150.0000037 -28.6787,0 0,150.0000037 z"
         style="fill:#ff0000;fill-opacity:1;fill-rule:nonzero;stroke:none"
         id="path4426"
         inkscape:connector-curvature="0" />
      <path
         d="m 2581.1907,8.0441137 28.6786,0 0,-150.0000037 -28.6786,0 0,150.0000036 z"
         style="fill:#ff0000;fill-opacity:1;fill-rule:nonzero;stroke:none"
         id="path4428"
         inkscape:connector-curvature="0" />
      <path
         d="m 2615.601,8.0441137 28.6786,0 0,-150.0000037 -28.6786,0 0,150.0000036 z"
         style="fill:#ff0000;fill-opacity:1;fill-rule:nonzero;stroke:none"
         id="path4430"
         inkscape:connector-curvature="0" />
      <path
         d="m 2650.0214,8.0441137 28.6787,0 0,-150.0000037 -28.6787,0 0,150.0000037 z"
         style="fill:#ff0000;fill-opacity:1;fill-rule:nonzero;stroke:none"
         id="path4432"
         inkscape:connector-curvature="0" />
      <path
         d="m 2684.4419,8.0441137 28.6786,0 0,-150.0000037 -28.6786,0 0,150.0000037 z"
         style="fill:#ff0000;fill-opacity:1;fill-rule:nonzero;stroke:none"
         id="path4434"
         inkscape:connector-curvature="0" />
      <path
         inkscape:connector-curvature="0"
         id="path4436"
         style="fill:#ff0000;fill-opacity:1;fill-rule:nonzero;stroke:none"
         d="m 2718.8522,8.0441137 28.6786,0 0,-150.0000037 -28.6786,0 0,150.0000037 z" />
      <path
         inkscape:connector-curvature="0"
         id="path4438"
         style="fill:#ff0000;fill-opacity:1;fill-rule:nonzero;stroke:none"
         d="m 2477.67,8.0441137 28.6787,0 0,-150.0000037 -28.6787,0 0,150.0000037 z" />
      <path
         inkscape:connector-curvature="0"
         id="path4440"
         style="fill:#ff0000;fill-opacity:1;fill-rule:nonzero;stroke:none"
         d="m 2512.0905,8.0441137 28.6786,0 0,-150.0000037 -28.6786,0 0,150.0000036 z" />
    </g>
    <path
       style="fill:none;fill-rule:evenodd;stroke:#ff0000;stroke-width:3.5999999;stroke-linecap:butt;stroke-linejoin:miter;stroke-miterlimit:4;stroke-dasharray:none;stroke-opacity:1;marker-end:url(#marker4444)"
       d="m 3085.2952,-12.266789 -0.3677,107.07617"
       id="path4442"
       inkscape:connector-curvature="0"
       sodipodi:nodetypes="cc"
       inkscape:export-xdpi="100.0398"
       inkscape:export-ydpi="100.0398" />
    <path
       sodipodi:nodetypes="cc"
       inkscape:connector-curvature="0"
       id="path4448"
       d="m 3432.0485,-12.266789 -0.3677,107.07617"
       style="fill:none;fill-rule:evenodd;stroke:#ff0000;stroke-width:3.5999999;stroke-linecap:butt;stroke-linejoin:miter;stroke-miterlimit:4;stroke-dasharray:none;stroke-opacity:1;marker-end:url(#marker4450)"
       inkscape:export-xdpi="100.0398"
       inkscape:export-ydpi="100.0398" />
    <path
       style="fill:none;fill-rule:evenodd;stroke:#ff0000;stroke-width:3.5999999;stroke-linecap:butt;stroke-linejoin:miter;stroke-miterlimit:4;stroke-dasharray:none;stroke-opacity:1;marker-end:url(#marker4456)"
       d="m 3466.7238,-12.266789 -0.3677,107.07617"
       id="path4454"
       inkscape:connector-curvature="0"
       sodipodi:nodetypes="cc"
       inkscape:export-xdpi="100.0398"
       inkscape:export-ydpi="100.0398" />
    <path
       style="fill:none;fill-rule:evenodd;stroke:#ff0000;stroke-width:3.5999999;stroke-linecap:butt;stroke-linejoin:miter;stroke-miterlimit:4;stroke-dasharray:none;stroke-opacity:1;marker-end:url(#marker4462)"
       d="m 3397.3732,-12.266789 -0.3677,107.07617"
       id="path4460"
       inkscape:connector-curvature="0"
       sodipodi:nodetypes="cc"
       inkscape:export-xdpi="100.0398"
       inkscape:export-ydpi="100.0398" />
    <path
       sodipodi:nodetypes="cc"
       inkscape:connector-curvature="0"
       id="path4466"
       d="m 3362.6979,-12.266789 -0.3677,107.07617"
       style="fill:none;fill-rule:evenodd;stroke:#ff0000;stroke-width:3.5999999;stroke-linecap:butt;stroke-linejoin:miter;stroke-miterlimit:4;stroke-dasharray:none;stroke-opacity:1;marker-end:url(#marker4468)"
       inkscape:export-xdpi="100.0398"
       inkscape:export-ydpi="100.0398" />
    <path
       style="fill:none;fill-rule:evenodd;stroke:#ff0000;stroke-width:3.5999999;stroke-linecap:butt;stroke-linejoin:miter;stroke-miterlimit:4;stroke-dasharray:none;stroke-opacity:1;marker-end:url(#marker4474)"
       d="m 3328.0226,-12.266789 -0.3677,107.07617"
       id="path4472"
       inkscape:connector-curvature="0"
       sodipodi:nodetypes="cc"
       inkscape:export-xdpi="100.0398"
       inkscape:export-ydpi="100.0398" />
    <path
       sodipodi:nodetypes="cc"
       inkscape:connector-curvature="0"
       id="path4478"
       d="m 3293.3473,-12.266789 -0.3677,107.07617"
       style="fill:none;fill-rule:evenodd;stroke:#ff0000;stroke-width:3.5999999;stroke-linecap:butt;stroke-linejoin:miter;stroke-miterlimit:4;stroke-dasharray:none;stroke-opacity:1;marker-end:url(#marker4480)"
       inkscape:export-xdpi="100.0398"
       inkscape:export-ydpi="100.0398" />
    <path
       style="fill:none;fill-rule:evenodd;stroke:#ff0000;stroke-width:3.5999999;stroke-linecap:butt;stroke-linejoin:miter;stroke-miterlimit:4;stroke-dasharray:none;stroke-opacity:1;marker-end:url(#marker4486)"
       d="m 3258.6717,-12.266789 -0.3677,107.07617"
       id="path4484"
       inkscape:connector-curvature="0"
       sodipodi:nodetypes="cc"
       inkscape:export-xdpi="100.0398"
       inkscape:export-ydpi="100.0398" />
    <path
       sodipodi:nodetypes="cc"
       inkscape:connector-curvature="0"
       id="path4490"
       d="m 3223.9964,-12.266789 -0.3677,107.07617"
       style="fill:none;fill-rule:evenodd;stroke:#ff0000;stroke-width:3.5999999;stroke-linecap:butt;stroke-linejoin:miter;stroke-miterlimit:4;stroke-dasharray:none;stroke-opacity:1;marker-end:url(#marker4492)"
       inkscape:export-xdpi="100.0398"
       inkscape:export-ydpi="100.0398" />
    <path
       style="fill:none;fill-rule:evenodd;stroke:#ff0000;stroke-width:3.5999999;stroke-linecap:butt;stroke-linejoin:miter;stroke-miterlimit:4;stroke-dasharray:none;stroke-opacity:1;marker-end:url(#marker4498)"
       d="m 3189.3212,-12.266789 -0.3677,107.07617"
       id="path4496"
       inkscape:connector-curvature="0"
       sodipodi:nodetypes="cc"
       inkscape:export-xdpi="100.0398"
       inkscape:export-ydpi="100.0398" />
    <path
       sodipodi:nodetypes="cc"
       inkscape:connector-curvature="0"
       id="path4502"
       d="m 3154.6459,-12.266789 -0.3677,107.07617"
       style="fill:none;fill-rule:evenodd;stroke:#ff0000;stroke-width:3.5999999;stroke-linecap:butt;stroke-linejoin:miter;stroke-miterlimit:4;stroke-dasharray:none;stroke-opacity:1;marker-end:url(#marker4504)"
       inkscape:export-xdpi="100.0398"
       inkscape:export-ydpi="100.0398" />
    <path
       style="fill:none;fill-rule:evenodd;stroke:#ff0000;stroke-width:3.5999999;stroke-linecap:butt;stroke-linejoin:miter;stroke-miterlimit:4;stroke-dasharray:none;stroke-opacity:1;marker-end:url(#marker4510)"
       d="m 3119.9706,-12.266789 -0.3677,107.07617"
       id="path4508"
       inkscape:connector-curvature="0"
       sodipodi:nodetypes="cc"
       inkscape:export-xdpi="100.0398"
       inkscape:export-ydpi="100.0398" />
    <path
       sodipodi:nodetypes="sssssssssssssssssssssssssssssssssscccsssssssccssssssssssssssssscssscsssssscsssssssssssssssscssssssscssscc"
       inkscape:connector-curvature="0"
       id="path4514"
       d="m 2407.4729,-245.62817 c -21.3386,0.1629 -44.2067,3.49239 -61.1425,17.56445 -8.019,6.49914 -12.9976,16.40488 -22.4007,21.23937 -9.6729,8.3436 -17.4075,18.67094 -24.9399,28.91127 -21.2051,30.69832 -35.3224,65.43667 -51.605,98.817634 -6.4063,14.069441 -13.7268,28.028966 -16.9001,43.260245 -0.4173,5.467872 0.2856,12.729458 5.833,15.359087 11.0861,2.559739 23.491,-6.644763 23.0962,-18.297151 2.7369,-19.037888 9.2211,-37.337843 16.609,-55.015545 9.5806,-20.78608 23.8335,-38.87748 37.036,-57.41748 10.5755,-14.4379 23.9658,-27.02198 40.1114,-34.99016 22.3886,-10.71464 44.9945,-21.40123 68.8956,-28.32043 14.7166,-3.72425 30.2383,-2.74125 44.797,1.20225 19.2714,4.28445 39.3054,7.71287 58.9697,3.94714 14.4752,-2.1284 30.1267,-5.75907 44.0839,0.52183 9.7361,5.82179 11.7966,18.04103 13.3279,28.34054 2.6925,18.30917 -2.9582,36.80561 0.1445,55.06054 3.2779,13.56141 15.4974,22.16925 27.0905,28.43497 18.0214,9.856935 38.475,13.325839 57.7956,19.657999 19.8802,6.920345 33.0103,26.670956 36.1973,46.915654 2.7612,25.5266965 5.4934,51.07588 9.4942,76.450092 5.4364,35.981947 13.7777,71.811825 28.7916,105.100015 8.6247,20.37465 16.3404,41.21018 27.1569,60.5679 23.608,44.74074 46.4165,90.72278 79.9857,129.05068 2.1816,2.32461 5.0539,5.949 7.5974,6.64913 1.2729,-196.05871 0.8018,-392.12251 0.9162,-588.18386 -121.2093,-1.25908 -242.4105,-3.75105 -363.6308,-3.55369 -29.1048,-0.3355 -58.2009,-1.37622 -87.3106,-1.27248 z m -96.9296,219.162109 c -10.1293,1.849653 -19.4404,10.967849 -19.412,21.5434855 3.0812,6.158563 11.1132,5.18908995 16.7264,4.02682795 7.2382,-0.52415395 14.1798,5.98827435 13.2554,13.38832355 0.2251,11.911586 -6.597,22.297695 -9.3725,33.578382 -3.9829,12.063411 -8.8841,24.667165 -7.0883,37.575198 3.5629,10.82867 12.0862,16.854694 28.0146,12.777445 91.8627,2.389125 277.8507,2.987386 350.8289,7.007109 10.7537,-20.459209 14.4326,-46.297997 12.9882,-66.327581 -1.0267,-12.5979 -2.9912,-25.715272 -9.65,-36.68957155 -8.6147,-13.74220545 -25.0385,-22.76250845 -41.3933,-20.55065245 -14.3206,0.786744 -28.4409,-2.017416 -42.6173,-3.43158 -77.9699,-7.154887 -156.094,2.495044 -234.1523,1.716651 -18.5779,0.170171 -37.2088,-1.126504 -55.4662,-4.578199 -0.8865,-0.05752 -1.774,-0.03251 -2.6616,-0.03584 z m 89.5034,137.209631 c -23.0062,-8.30562 -44.0464,10.55876 -44.0464,10.55876 0,0 -20.873,4.49334 13.3191,40.02691 0,0 24.8799,52.46216 37.0813,57.46251 11.6101,6.617 -12.8345,-66.62307 -10.5636,-54.30887 3.1794,16.54544 -3.9683,36.05392 -19.8726,43.35849 -9.5107,2.54539 -17.8996,-4.63421 -24.0169,-11.01096 -6.6371,-6.67865 -12.8786,-15.45925 -22.716,-17.23425 -4.313,0.68512 -4.5012,6.3614 -2.5254,9.36914 4.1751,10.68744 13.354,18.63515 16.8086,29.6875 1.2507,2.85208 4.9616,4.8081 5.0254,7.94531 -2.2286,2.52673 -5.3239,-1.26497 -6.9618,-2.85717 -9.5289,-9.34267 -14.465,-22.88542 -25.8312,-30.38697 -10.1132,-7.06162 -25.3405,0.57691 -27.2174,12.35452 -1.0238,9.05173 -2.1279,19.71759 4.5651,27.02048 7.6538,7.6027 15.3434,15.84415 20.9505,25.88792 6.9827,15.1284 -2.6785,53.88543 3.1493,69.39851 4.5237,13.1973 13.9497,23.88582 23.4133,33.81513 7.5176,7.14202 16.392,13.96823 26.8574,15.69922 15.8023,1.79946 49.3438,8.96751 64.923,9.84208 29.8734,1.677 90.2806,10.13017 126.2503,4.8818 29.8565,-6.09401 61.8448,-6.40994 90.4442,5.24339 24.2831,9.63894 43.4723,27.90458 64.9005,42.24674 3.0576,1.8769 6.1576,4.43537 9.9589,3.2727 9.2385,-1.36608 18.4037,-3.18884 27.6544,-4.50107 l 15.7746,-2.59668 c -2.4984,-3.49712 -7.0838,-5.86002 -7.5839,-10.51563 9.3402,-3.0945 18.7206,-6.11859 27.5878,-10.42578 17.3981,-7.26815 35.3551,-16.0577 46.6094,-31.81641 2.8139,-1.75324 5.6467,1.62123 8.434,2.16325 8.8474,4.02205 17.1883,9.35608 24.0133,16.32113 -2.6807,-14.4631 -3.5573,-29.55046 -9.4217,-43.19914 -4.796,-9.51484 -12.9821,-17.75693 -23.0382,-21.48936 -5.8706,-0.94317 -9.8877,4.9439 -10.4465,10.15369 -1.9168,9.4459 1.1498,19.01647 2.1232,28.26332 -2.7917,1.91266 -6.6899,1.89779 -9.9143,3.06555 -19.498,4.93675 -40.5027,9.57227 -55.4942,23.96603 -3.9228,3.8525 -6.2748,9.0256 -8.5661,13.82194 -3.6674,1.33957 -5.5956,-3.38951 -8.0044,-5.28567 -24.3805,-26.7798 -43.6091,-58.52371 -54.7778,-93.02923 -4.7759,-19.35003 -5.4621,-40.69413 -17.6456,-57.3433 -2.1303,-2.6721 -7.9943,-1.38545 -6.7179,2.60384 1.233,9.00216 7.6296,16.23619 9.2139,25.1699 1.7635,6.25037 3.3544,13.975 -0.535,19.64032 -4.0105,1.58435 -6.4756,-3.31573 -7.2225,-6.49619 -13.0942,-29.10498 -17.9744,-111.79802 -35.7288,-138.77774 -9.6931,-14.963 -24.1819,-26.66269 -40.946,-32.77721 -22.6887,-8.68739 -47.5387,-8.24716 -71.3231,-5.62468 -16.6845,1.62308 -33.7464,0.91675 -49.8385,-4.09894 -14.0022,-3.82014 -54.2773,-4.47397 -68.1017,-9.46483 z m -70.2038,71.0772 c 14.1762,7.73806 25.1723,21.15133 30.334,36.39062 0.5672,2.17266 -1.7234,4.64542 -3.5934,2.54122 -8.1516,-6.45873 -15.8837,-13.69795 -21.8832,-22.25411 -3.1096,-4.72242 -5.9524,-10.09188 -6.4609,-15.73047 0.3039,-0.56895 0.9147,-1.09205 1.6035,-0.94726 z m 500.9347,197.65848 c 2.5937,3.58061 -2.2651,6.77369 -4.5626,9.01179 -17.9568,16.28631 -40.8889,25.96843 -64.0233,32.29485 -3.5879,0.68014 -7.7609,-2.51716 -6.1797,-6.35742 2.285,-9.97538 12.2398,-15.16461 20.4672,-19.73023 16.7417,-8.79814 35.2813,-14.78719 54.2984,-15.21899 z"
       style="fill:#000000"
       inkscape:export-xdpi="100.0398"
       inkscape:export-ydpi="100.0398" />
    <text
       xml:space="preserve"
       style="font-style:normal;font-weight:normal;font-size:40px;line-height:125%;font-family:sans-serif;letter-spacing:0px;word-spacing:0px;fill:#ff0000;fill-opacity:1;stroke:none;stroke-width:1px;stroke-linecap:butt;stroke-linejoin:miter;stroke-opacity:1"
       x="37.514771"
       y="-305.71964"
       id="text4440"
       sodipodi:linespacing="125%"><tspan
         sodipodi:role="line"
         id="tspan4442"
         x="37.514771"
         y="-305.71964">450</tspan></text>
    <text
       sodipodi:linespacing="125%"
       id="text4444"
       y="-25.907379"
       x="89.032547"
       style="font-style:normal;font-weight:normal;font-size:40px;line-height:125%;font-family:sans-serif;letter-spacing:0px;word-spacing:0px;fill:#ff0000;fill-opacity:1;stroke:none;stroke-width:1px;stroke-linecap:butt;stroke-linejoin:miter;stroke-opacity:1"
       xml:space="preserve"><tspan
         y="-25.907379"
         x="89.032547"
         id="tspan4446"
         sodipodi:role="line">0</tspan></text>
  </g>
</svg>
